<?xml version="1.0" encoding="UTF-8" standalone="no"?>
<svg
   id="main_svg"
   width="504"
   height="300"
   version="1.1"
   xmlns="http://www.w3.org/2000/svg"
   xmlns:svg="http://www.w3.org/2000/svg">
  <defs
     id="defs5" />
  <g
     id="svg_g_bezier_cells"
     style="display:none">
    <path
       d="M 55.919118,300 236.80147,0 H 0 v 300 z"
       fill="#221155"
       fill-opacity="0.2"
       id="path1" />
    <path
       d="M 150.4,300 330.4,0 H 236.80147 L 55.919118,300 Z"
       fill="#221155"
       fill-opacity="0.2"
       id="path2" />
    <path
       d="M 248.21739,300 417.78261,0 H 330.4 l -180,300 z"
       fill="#221155"
       fill-opacity="0.2"
       id="path3" />
    <path
       d="M 336.47794,300 504,22.158537 504,0 H 417.78261 L 248.21739,300 Z"
       fill="#221155"
       fill-opacity="0.2"
       id="path4" />
    <path
       d="M 504,22.158537 336.47794,300 H 504 Z"
       fill="#221155"
       fill-opacity="0.2"
       id="path5" />
  </g>
  <g
     id="svg_g_edges"
     style="display:none"
     transform="translate(-28)">
    <path
       id="svg_path_edges"
       d="M 236.80147,0 55.919118,300 M 330.4,0 150.4,300 M 417.78261,0 248.21739,300 m 88.26055,0 L 504,22.158537 M 336.47794,300 H 504 m 0,0 V 22.158537 m 0,0 V 0 m 0,0 H 417.78261 M 248.21739,300 h 88.26055 M 417.78261,0 H 330.4 m -180,300 h 97.81739 M 330.4,0 H 236.80147 M 55.919118,300 H 150.4 M 236.80147,0 H 0 m 0,0 v 300 m 0,0 h 55.919118"
       stroke="#000000"
       stroke-width="2" />
  </g>
  <g
     id="svg_g_seeds"
     style="display:inline"
     transform="translate(-32)">
    <circle
       id="c_9"
       cx="142"
       cy="83"
       r="3.75"
       stroke="#000000"
       stroke-width="2.5"
       fill="#1f7bfd"
       style="stroke-width:1.5;stroke-dasharray:none;fill:#1f7bfd;fill-opacity:0" />
    <circle
       id="c_10"
       cx="210"
       cy="124"
       r="3.75"
       stroke="#000000"
       stroke-width="2.5"
       fill="#1f7bfd"
       style="stroke-width:1.5;stroke-dasharray:none;fill:#1f7bfd;fill-opacity:0" />
    <circle
       id="c_11"
       cx="280"
       cy="166"
       r="3.75"
       stroke="#000000"
       stroke-width="2.5"
       fill="#1f7bfd"
       style="stroke-width:1.5;stroke-dasharray:none;fill:#1f7bfd;fill-opacity:0" />
    <circle
       id="c_12"
       cx="349"
       cy="205"
       r="3.75"
       stroke="#000000"
       stroke-width="2.5"
       fill="#1f7bfd"
       style="stroke-width:1.5;stroke-dasharray:none;fill:#1f7bfd;fill-opacity:0" />
    <circle
       id="c_13"
       cx="417"
       cy="246"
       r="3.75"
       stroke="#000000"
       stroke-width="2.5"
       fill="#1f7bfd"
       style="stroke-width:1.5;stroke-dasharray:none;fill:#1f7bfd;fill-opacity:0" />
  </g>
  <path
     style="display:none;fill:none;stroke:#000000;stroke-width:1.5"
     d="M 305.3888,299.80185 485.20127,-0.12862363"
     id="path6" />
  <path
     style="display:none;fill:none;stroke:#000000;stroke-width:1.5"
     d="M 216.80864,300.17399 385.70603,-0.36388149"
     id="path7" />
  <path
     style="display:none;fill:none;stroke:#000000;stroke-width:1.5"
     d="M 118.55037,300.08101 298.99375,-0.74330908"
     id="path8" />
  <path
     style="display:none;fill:none;stroke:#000000;stroke-width:1.5"
     d="M 23.975672,300.20894 205.51563,-1.3551794"
     id="path9" />
  <rect
     style="fill:none;stroke:#000000;stroke-width:1.49998;stroke-dasharray:none"
     id="rect9"
     width="502.5"
     height="298.50003"
     x="0.74998802"
     y="0.74998802" />
</svg>
