<?xml version="1.0" encoding="UTF-8" standalone="no"?>
<svg
   id="main_svg"
   width="505.5"
   height="301.5"
   version="1.1"
   xml:space="preserve"
   xmlns="http://www.w3.org/2000/svg"
   xmlns:svg="http://www.w3.org/2000/svg"><defs
     id="defs1"><linearGradient
       id="swatch1"><stop
         style="stop-color:#000000;stop-opacity:1;"
         offset="0"
         id="stop1" /></linearGradient></defs><g
     id="g1"
     transform="translate(1,1)"
     style="display:inline"><rect
       style="display:none;fill:#1f7bfd;fill-opacity:0;stroke:#000000;stroke-width:1.879;stroke-dasharray:none"
       id="rect1"
       width="502.12143"
       height="298.12143"
       x="-0.060715653"
       y="-0.060715653" /><g
       id="g2"
       style="display:inline;stroke-width:1;stroke-dasharray:none"><g
         id="svg_g_bezier_cells-5"
         style="display:none;stroke-width:1;stroke-dasharray:none"
         transform="translate(-0.25,-0.25)"><path
           d="M 0,220.85096 207.60709,120.37922 240.33018,0 H 0 Z"
           fill="#221155"
           fill-opacity="0.2"
           id="path1-6"
           style="fill:#33b74e;fill-opacity:1;stroke-width:1;stroke-dasharray:none" /><path
           d="M 207.60709,120.37922 262.98578,235.30845 504,74.450379 V 0 H 240.33018 Z"
           fill="#221155"
           fill-opacity="0.2"
           id="path2-2"
           style="fill:#2f7bbc;fill-opacity:1;stroke-width:1;stroke-dasharray:none" /><path
           d="M 254.6988,300 262.98578,235.30845 207.60709,120.37922 0,220.85096 V 300 Z"
           fill="#221155"
           fill-opacity="0.2"
           id="path3-9"
           style="fill:#c1cc17;fill-opacity:1;stroke-width:1;stroke-dasharray:none" /><path
           d="M 504,74.450379 262.98578,235.30845 254.6988,300 H 504 Z"
           fill="#221155"
           fill-opacity="0.2"
           id="path4-1"
           style="display:inline;fill:#c13c3c;fill-opacity:1;stroke-width:1;stroke-dasharray:none" /></g><g
         id="svg_g_edges-2"
         style="display:inline;stroke-width:1.5;stroke-dasharray:none"
         transform="translate(-0.25,-0.25)"><path
           id="svg_path_edges-7"
           d="M 207.60709,120.37922 240.33018,0 M 207.60709,120.37922 0,220.85096 m 207.60709,-100.47174 55.37869,114.92923 m 0,0 L 504,74.450379 M 262.98578,235.30845 254.6988,300 m 0,0 H 504 m 0,0 V 74.450379 M 0,220.85096 V 300 m 0,0 H 254.6988 M 504,74.450379 V 0 m 0,0 H 240.33018 m 0,0 H 0 m 0,0 v 220.85096"
           stroke="#000000"
           stroke-width="2"
           style="display:inline;stroke-width:1.5;stroke-dasharray:none" /></g><g
         id="svg_g_seeds"
         style="display:inline;stroke-width:1;stroke-dasharray:none"><ellipse
           id="c_0"
           cx="170.25751"
           cy="210.68011"
           stroke="#000000"
           stroke-width="2.5"
           fill="#1f7bfd"
           style="display:inline;fill:#a97d5f;fill-opacity:0;stroke-width:1.5;stroke-dasharray:none"
           rx="3.75"
           ry="3.7500002" /><ellipse
           id="c_1"
           cx="114.77991"
           cy="96.045456"
           stroke="#000000"
           stroke-width="2.5"
           fill="#1f7bfd"
           style="fill:#a97d5f;fill-opacity:0;stroke-width:1.5;stroke-dasharray:none"
           rx="3.75"
           ry="3.7500002" /><ellipse
           id="c_2"
           cx="302.34741"
           cy="147.03256"
           stroke="#000000"
           stroke-width="2.5"
           fill="#1f7bfd"
           style="fill:#a97d5f;fill-opacity:0;stroke-width:1.5;stroke-dasharray:none"
           rx="3.75"
           ry="3.7500002" /><ellipse
           id="c_3"
           cx="361.5256"
           cy="235.51106"
           stroke="#000000"
           stroke-width="3.49998"
           fill="#1f7bfd"
           rx="3.9640799"
           ry="3.9640779"
           style="fill:#04eb09;fill-opacity:0;stroke:#000000;stroke-width:1.5;stroke-dasharray:none;stroke-opacity:1" /></g></g></g><path
     style="fill:none;fill-opacity:1;stroke:#ff0000;stroke-width:2;stroke-dasharray:none;stroke-opacity:1"
     d="M 208.37831,121.00058 241.48563,-0.62219527"
     id="path2" /><ellipse
     style="fill:#000000;fill-opacity:1;stroke:#000000;stroke-width:1.32835"
     id="path1"
     cx="207.86342"
     cy="121.34126"
     rx="4.3358221"
     ry="4.3358226" /><rect
     style="display:inline;fill:#c23b3b;fill-opacity:0;stroke:#000000;stroke-width:1.5;stroke-dasharray:none"
     id="rect2"
     width="504"
     height="300"
     x="0.75"
     y="0.75" /><ellipse
     style="fill:#000000;fill-opacity:1;stroke:#000000;stroke-width:1.32835"
     id="path1-2"
     cx="263.92441"
     cy="234.29782"
     rx="4.3358221"
     ry="4.3358226" /></svg>
