<?xml version="1.0" encoding="UTF-8" standalone="no"?>
<svg
   id="main_svg"
   width="504"
   height="300"
   version="1.1"
   xml:space="preserve"
   xmlns="http://www.w3.org/2000/svg"
   xmlns:svg="http://www.w3.org/2000/svg"><defs
     id="defs2" /><g
     id="svg_g_bezier_cells"
     style="display:none"><path
       d="M 243.5,300 V 0 H 0 v 300 z"
       fill="#221155"
       fill-opacity="0.2"
       id="path1" /><path
       d="M 243.5,0 V 300 H 504 V 0 Z"
       fill="#221155"
       fill-opacity="0.2"
       id="path2" /></g><g
     id="svg_g_edges"
     style="display:inline"><path
       id="svg_path_edges"
       d="M 243.5,300 V 0 m 0,300 H 504 m 0,0 V 0 m 0,0 H 243.5 m 0,0 H 0 m 0,0 v 300 m 0,0 h 243.5"
       stroke="#000000"
       stroke-width="2"
       style="display:inline;stroke-width:1.5;stroke-dasharray:none" /></g><g
     id="svg_g_seeds"><ellipse
       id="c_12"
       cx="208.11571"
       cy="152.11571"
       stroke="#000000"
       stroke-width="2.30036"
       fill="#1f7bfd"
       rx="3.8498211"
       ry="3.8498194"
       style="fill:#ffffff;fill-opacity:1;stroke-width:1.5;stroke-dasharray:none" /><ellipse
       id="c_13"
       cx="281.11572"
       cy="152.11571"
       stroke="#000000"
       stroke-width="2.30036"
       fill="#1f7bfd"
       rx="3.8498199"
       ry="3.8498194"
       style="fill:#ffffff;fill-opacity:1;stroke-width:1.5;stroke-dasharray:none" /><ellipse
       id="c_14"
       cx="163"
       cy="128.86957"
       stroke="#000000"
       stroke-width="2.5"
       fill="#1f7bfd"
       rx="3.75"
       ry="3.7500002"
       style="fill:#ffffff;fill-opacity:1;stroke-width:1.5;stroke-dasharray:none" /></g><g
     id="g2"
     transform="translate(0,-0.13043478)"><g
       id="svg_g_bezier_cells-9"
       style="display:none"><path
         d="M 102.46667,300 243.5,24.065217 248.19068,0 H 0 v 300 z"
         fill="#221155"
         fill-opacity="0.2"
         id="path1-3" /><path
         d="M 243.5,300 V 24.065217 L 102.46667,300 Z"
         fill="#221155"
         fill-opacity="0.2"
         id="path2-1" /><path
         d="M 243.5,24.065217 V 300 H 504 V 0 H 248.19068 Z"
         fill="#221155"
         fill-opacity="0.2"
         id="path3" /></g><g
       id="svg_g_edges-9"
       style="display:none"><path
         id="svg_path_edges-4"
         d="M 243.5,24.065217 102.46667,300 M 243.5,24.065217 248.19068,0 M 243.5,24.065217 V 300 m 0,0 H 504 m 0,0 V 0 m 0,0 H 248.19068 M 102.46667,300 H 243.5 M 248.19068,0 H 0 m 0,0 v 300 m 0,0 h 102.46667"
         stroke="#000000"
         stroke-width="2" /></g></g><path
     style="display:inline;fill:#ffffff;fill-opacity:1;stroke:#000000;stroke-width:1.5;stroke-dasharray:none"
     d="M 102.93894,300.28549 255.9263,-0.4651628"
     id="path4" /><rect
     style="display:inline;fill:#ffffff;fill-opacity:0;stroke:#000000;stroke-width:1.49998;stroke-dasharray:none"
     id="rect4"
     width="502.5"
     height="298.50003"
     x="0.74998677"
     y="0.74998677" /><path
     style="fill:#ffffff;fill-opacity:0;stroke:#000000;stroke-width:1.5;stroke-dasharray:none"
     d="M 248.11256,0.99896012 189.44851,300.70911"
     id="path7" /></svg>
