<?xml version="1.0" encoding="UTF-8" standalone="no"?>
<svg
   id="main_svg"
   width="504"
   height="300"
   version="1.1"
   xmlns="http://www.w3.org/2000/svg"
   xmlns:svg="http://www.w3.org/2000/svg">
  <defs
     id="defs2" />
  <g
     id="svg_g_bezier_cells"
     style="display:none">
    <path
       d="M 242.5,150 C 242.5,4 242.5,4 123.25,4 4,4 4,4 4,150 4,296 4,296 123.25,296 242.5,296 242.5,296 242.5,150 Z"
       fill="#221155"
       fill-opacity="0.2"
       id="path1" />
    <path
       d="m 250.5,150 c 0,146 0,146 124.75,146 C 500,296 500,296 500,150 500,4 500,4 375.25,4 250.5,4 250.5,4 250.5,150 Z"
       fill="#221155"
       fill-opacity="0.2"
       id="path2" />
  </g>
  <g
     id="svg_g_edges"
     style="display:inline">
    <path
       id="svg_path_edges"
       d="M 246.5,300 V 0 m 0,300 H 504 m 0,0 V 0 m 0,0 H 246.5 m 0,0 H 0 m 0,0 v 300 m 0,0 h 246.5"
       stroke="#000000"
       stroke-width="2" />
  </g>
  <g
     id="svg_g_seeds"
     style="display:inline">
    <ellipse
       id="c_0"
       cx="314.33484"
       cy="150.55327"
       stroke="#000000"
       stroke-width="2"
       fill="#1f7bfd"
       style="fill:#1f7bfd;fill-opacity:0;stroke-width:1.5;stroke-dasharray:none"
       rx="4"
       ry="4.0000005" />
    <ellipse
       id="c_1"
       cx="178.25"
       cy="150.25"
       stroke="#000000"
       stroke-width="2"
       fill="#1f7bfd"
       style="fill:#1f7bfd;fill-opacity:0;stroke-width:1.5;stroke-dasharray:none"
       rx="4"
       ry="4.0000005" />
  </g>
  <rect
     style="display:inline;fill:#1f7bfd;fill-opacity:0;stroke:#000000;stroke-width:1.49405;stroke-dasharray:none"
     id="rect2"
     width="502.50595"
     height="298.50595"
     x="0.74702042"
     y="0.74702042" />
  <path
     style="display:inline;fill:#1f7bfd;fill-opacity:0;stroke:#000000;stroke-width:1.47031;stroke-dasharray:1.47031, 1.47031;stroke-dashoffset:0"
     d="M 183.79102,150.26625 H 308.56169"
     id="path3" />
</svg>
