<?xml version="1.0" encoding="UTF-8" standalone="no"?>
<svg
   id="main_svg"
   width="504"
   height="300"
   version="1.1"
   xmlns="http://www.w3.org/2000/svg"
   xmlns:svg="http://www.w3.org/2000/svg">
  <defs
     id="defs3" />
  <g
     id="svg_g_bezier_cells"
     style="display:inline">
    <path
       d="M 53.52,0 252,171.10345 450.48,0 Z"
       fill="#221155"
       fill-opacity="0.2"
       id="path1"
       style="fill:#58d62d;fill-opacity:0.61326" />
    <path
       d="M 252,300 V 171.10345 L 53.52,0 H 0 v 300 z"
       fill="#221155"
       fill-opacity="0.2"
       id="path2"
       style="fill:#2626c0;fill-opacity:0.565547" />
    <path
       d="M 252,171.10345 V 300 H 504 V 0 h -53.52 z"
       fill="#221155"
       fill-opacity="0.2"
       id="path3"
       style="fill:#c62828;fill-opacity:0.438085" />
  </g>
  <g
     id="svg_g_edges"
     style="display:inline">
    <path
       id="svg_path_edges"
       d="M 252,171.10345 53.52,0 M 252,171.10345 450.48,0 M 252,171.10345 V 300 m 0,0 h 252 m 0,0 V 0 m 0,0 H 450.48 M 53.52,0 H 0 m 0,0 v 300 m 0,0 H 252 M 450.48,0 H 53.52"
       stroke="#000000"
       stroke-width="2" />
  </g>
  <ellipse
     style="display:none;fill:#1f7bfd;fill-opacity:0;stroke:#000000;stroke-width:1.50914;stroke-dasharray:none;stroke-opacity:1"
     id="path4"
     cx="252.09256"
     cy="170.08087"
     rx="100.853"
     ry="100.8533" />
  <g
     id="svg_g_seeds"
     transform="translate(0,-2)"
     style="display:inline">
    <circle
       id="c_7"
       cx="253"
       cy="71"
       r="3.75"
       stroke="#000000"
       stroke-width="2"
       fill="#1f7bfd"
       style="fill:#ffffff;fill-opacity:1;stroke:#000000;stroke-width:1.5;stroke-dasharray:none;stroke-opacity:1" />
    <circle
       id="c_8"
       cx="352.04529"
       cy="186.97887"
       r="3.75"
       stroke="#000000"
       stroke-width="2"
       fill="#1f7bfd"
       style="fill:#ffffff;fill-opacity:1;stroke:#000000;stroke-width:1.5;stroke-dasharray:none;stroke-opacity:1" />
    <circle
       id="c_9"
       cx="152.46895"
       cy="187.14409"
       stroke="#000000"
       stroke-width="2"
       fill="#1f7bfd"
       r="3.75"
       style="fill:#ffffff;fill-opacity:1;stroke:#000000;stroke-width:1.5;stroke-dasharray:none;stroke-opacity:1" />
  </g>
  <circle
     id="c_9-3"
     cx="252.09073"
     cy="172.83263"
     stroke="#000000"
     stroke-width="2"
     fill="#1f7bfd"
     r="3.75"
     style="display:inline;fill:#000000;fill-opacity:1;stroke:#000000;stroke-width:1.5;stroke-dasharray:none;stroke-opacity:1"
     transform="translate(0,-2)" />
  <rect
     style="display:inline;fill:#ffffff;fill-opacity:0;stroke:#000000;stroke-width:1.49998;stroke-dasharray:none;stroke-opacity:1"
     id="rect4"
     width="502.5"
     height="298.50003"
     x="0.74998814"
     y="0.74998814" />
</svg>
