<?xml version="1.0" encoding="UTF-8" standalone="no"?>
<svg
   id="main_svg"
   width="504"
   height="300"
   version="1.1"
   sodipodi:docname="proof-4.12-1.svg"
   inkscape:version="1.3.2 (091e20ef0f, 2023-11-25, custom)"
   xml:space="preserve"
   xmlns:inkscape="http://www.inkscape.org/namespaces/inkscape"
   xmlns:sodipodi="http://sodipodi.sourceforge.net/DTD/sodipodi-0.dtd"
   xmlns="http://www.w3.org/2000/svg"
   xmlns:svg="http://www.w3.org/2000/svg"><defs
     id="defs7"><inkscape:path-effect
       effect="bspline"
       id="path-effect12"
       is_visible="true"
       lpeversion="1.3"
       weight="33.333333"
       steps="2"
       helper_size="0"
       apply_no_weight="true"
       apply_with_weight="true"
       only_selected="false"
       uniform="false" /><inkscape:path-effect
       effect="bspline"
       id="path-effect11"
       is_visible="true"
       lpeversion="1.3"
       weight="33.333333"
       steps="2"
       helper_size="0"
       apply_no_weight="true"
       apply_with_weight="true"
       only_selected="false"
       uniform="false" /><inkscape:path-effect
       effect="bspline"
       id="path-effect10"
       is_visible="true"
       lpeversion="1.3"
       weight="33.333333"
       steps="2"
       helper_size="0"
       apply_no_weight="true"
       apply_with_weight="true"
       only_selected="false"
       uniform="false" /><inkscape:path-effect
       effect="bspline"
       id="path-effect9"
       is_visible="true"
       lpeversion="1.3"
       weight="33.333333"
       steps="2"
       helper_size="0"
       apply_no_weight="true"
       apply_with_weight="true"
       only_selected="false"
       uniform="false" /><inkscape:path-effect
       effect="bspline"
       id="path-effect8"
       is_visible="true"
       lpeversion="1.3"
       weight="33.333333"
       steps="2"
       helper_size="0"
       apply_no_weight="true"
       apply_with_weight="true"
       only_selected="false"
       uniform="false" /></defs><sodipodi:namedview
     id="namedview7"
     pagecolor="#ffffff"
     bordercolor="#000000"
     borderopacity="0.25"
     inkscape:showpageshadow="2"
     inkscape:pageopacity="0.0"
     inkscape:pagecheckerboard="0"
     inkscape:deskcolor="#d1d1d1"
     inkscape:zoom="2.2956727"
     inkscape:cx="236.96758"
     inkscape:cy="175.11207"
     inkscape:window-width="1920"
     inkscape:window-height="1150"
     inkscape:window-x="0"
     inkscape:window-y="50"
     inkscape:window-maximized="1"
     inkscape:current-layer="main_svg" /><g
     id="svg_g_bezier_cells"
     style="display:none"><path
       d="m 142.4188,0 52.96514,151.14442 68.55836,3.98595 L 304.82008,62.776848 306.48673,0 Z"
       fill="#221155"
       fill-opacity="0.2"
       id="path1" /><path
       d="M 304.82008,62.776848 367.817,199.27016 504,278.05372 504,0 H 306.48673 Z"
       fill="#221155"
       fill-opacity="0.2"
       id="path2" /><path
       d="m 263.9423,155.13037 26.6474,29.80896 77.2273,14.33083 -62.99692,-136.493312 z"
       fill="#221155"
       fill-opacity="0.2"
       id="path3" /><path
       d="M 0,261.0266 181.48872,185.72809 195.38394,151.14442 142.4188,0 H 0 Z"
       fill="#221155"
       fill-opacity="0.2"
       id="path4" /><path
       d="m 181.48872,185.72809 49.77308,74.15174 59.3279,-74.9405 -26.6474,-29.80896 -68.55836,-3.98595 z"
       fill="#221155"
       fill-opacity="0.2"
       id="path5" /><path
       d="M 231.2618,259.87983 234.90909,300 H 504 l 0,-21.94628 -136.183,-78.78356 -77.2273,-14.33083 z"
       fill="#221155"
       fill-opacity="0.2"
       id="path6" /><path
       d="M 234.90909,300 231.2618,259.87983 181.48872,185.72809 0,261.0266 V 300 Z"
       fill="#221155"
       fill-opacity="0.2"
       id="path7" /></g><g
     id="svg_g_edges"
     style="display:none"><path
       id="svg_path_edges"
       d="M 304.82008,62.776848 367.817,199.27016 M 304.82008,62.776848 263.9423,155.13037 m 0,0 -68.55836,-3.98595 m 68.55836,3.98595 26.6474,29.80896 m -95.20576,-33.79491 -13.89522,34.58367 m 109.10098,-0.78876 -59.3279,74.9405 m 59.3279,-74.9405 77.2273,14.33083 m -186.32828,-13.54207 49.77308,74.15174"
       stroke="#000000"
       stroke-width="2"
       sodipodi:nodetypes="cccccccccccccccc"
       style="stroke-width:1.5;stroke-dasharray:none" /></g><path
     style="display:none;fill:#000000;fill-opacity:0;stroke:#000000;stroke-width:1.5"
     d="M 305.20332,63.653529 C 300.42348,49.803403 295.64374,35.953557 286.16935,27.006661 276.69497,18.059764 262.5267,14.016533 248.35815,9.9732215"
     id="path8"
     inkscape:path-effect="#path-effect8"
     inkscape:original-d="M 305.20332,63.653529 C 300.42348,49.803403 295.64374,35.953556 290.8638,22.103155 276.69497,18.059763 262.5267,14.016533 248.35815,9.9732215"
     sodipodi:nodetypes="ccc" /><path
     style="display:none;fill:#000000;fill-opacity:0;stroke:#000000;stroke-width:1.5"
     d="m 195.49717,151.26774 c 1.04123,-28.47863 2.08247,-56.957262 10.86394,-80.413909 8.78148,-23.456647 25.30254,-41.890571 41.82394,-60.324868"
     id="path9"
     inkscape:path-effect="#path-effect9"
     inkscape:original-d="m 195.49717,151.26774 c 1.04123,-28.47863 2.08247,-56.957262 3.1237,-85.435895 16.52172,-18.434663 33.04278,-36.868588 49.56418,-55.302882" /><path
     style="display:none;fill:#000000;fill-opacity:0;stroke:#000000;stroke-width:1.5"
     d="m 182.11828,186.00744 c -31.28489,9.59086 -62.56916,19.18152 -80.63813,6.19448 C 83.411189,179.21488 78.55906,143.65188 105.27408,109.45916 131.9891,75.266437 190.26922,42.44744 248.55051,9.6277851"
     id="path10"
     inkscape:path-effect="#path-effect10"
     inkscape:original-d="M 182.11828,186.00744 C 150.83339,195.5983 119.54912,205.18896 88.263608,214.78001 83.411189,179.21488 78.55906,143.65188 73.706641,108.08675 131.9891,75.266437 190.26922,42.447438 248.55051,9.6277851"
     sodipodi:nodetypes="cccc" /><path
     style="display:none;fill:#000000;fill-opacity:0;stroke:#000000;stroke-width:1.5"
     d="M 231.12156,259.82504 C 209.66799,271.2386 188.21443,282.65216 154.68593,274.73988 121.15743,266.8276 75.556745,239.59113 58.087789,200.29692 40.618834,161.00272 51.283724,109.65552 71.381345,76.561624 91.478966,43.467727 121.00691,28.6311 151.98638,20.348541 c 30.97947,-8.282559 63.4074,-10.010092 95.83597,-11.73766"
     id="path11"
     inkscape:path-effect="#path-effect11"
     inkscape:original-d="M 231.12156,259.82504 C 209.66799,271.2386 188.21443,282.65216 166.76087,294.06572 121.15743,266.8276 75.556745,239.59113 29.953301,212.35301 40.618834,161.00272 51.283724,109.65552 61.949254,58.305243 91.478966,43.467727 121.00691,28.631101 150.53662,13.793585 c 32.42923,-1.727603 64.85716,-3.455136 97.28573,-5.182704"
     sodipodi:nodetypes="cccccc" /><path
     style="display:none;fill:#000000;fill-opacity:0;stroke:#000000;stroke-width:1.5"
     d="m 366.96079,198.83747 c 21.86495,12.56931 43.72989,25.13861 57.71412,12.70801 13.98423,-12.43061 20.08751,-49.85964 13.4004,-84.34692 C 431.3882,92.711289 411.91136,61.167778 387.39797,41.740815 362.88458,22.313852 333.33621,15.004362 309.48347,11.499872 285.63073,7.9953819 267.47493,8.2960231 249.31876,8.5966704"
     id="path12"
     inkscape:path-effect="#path-effect12"
     inkscape:original-d="m 366.96079,198.83747 c 21.86495,12.56931 43.72989,25.13861 65.59483,37.70792 6.10352,-37.43052 12.2068,-74.85955 18.3102,-112.28933 C 431.3882,92.711288 411.91136,61.167775 392.43412,29.623631 362.88458,22.31385 333.33621,15.004363 303.78726,7.6947287 285.63073,7.9953819 267.47493,8.2960232 249.31876,8.5966704" /><g
     id="svg_g_seeds"
     inkscape:label="svg_g_seeds"><circle
       id="c_0"
       cx="131.25"
       cy="153.25"
       r="3.9473684"
       stroke="#000000"
       stroke-width="2.10526"
       fill="#1f7bfd"
       style="fill:#ffffff;fill-opacity:1;stroke-width:1.5;stroke-dasharray:none" /><circle
       id="c_1"
       cx="361.25"
       cy="115.25"
       r="3.9473684"
       stroke="#000000"
       stroke-width="2.10526"
       fill="#1f7bfd"
       style="fill:#ffffff;fill-opacity:1;stroke-width:1.5;stroke-dasharray:none" /><circle
       id="c_2"
       cx="309.25"
       cy="139.25"
       r="3.9473684"
       stroke="#000000"
       stroke-width="2.10526"
       fill="#1f7bfd"
       style="fill:#ffffff;fill-opacity:1;stroke-width:1.5;stroke-dasharray:none" /><circle
       id="c_3"
       cx="243.25"
       cy="198.25"
       r="3.9473684"
       stroke="#000000"
       stroke-width="2.10526"
       fill="#1f7bfd"
       style="fill:#ffffff;fill-opacity:1;stroke-width:1.5;stroke-dasharray:none" /><circle
       id="c_4"
       cx="291.25"
       cy="236.25"
       r="3.9473684"
       stroke="#000000"
       stroke-width="2.10526"
       fill="#1f7bfd"
       style="fill:#ffffff;fill-opacity:1;stroke-width:1.5;stroke-dasharray:none" /><circle
       id="c_5"
       cx="248.25"
       cy="112.25"
       r="3.9473684"
       stroke="#000000"
       stroke-width="2.10526"
       fill="#1f7bfd"
       style="fill:#ffffff;fill-opacity:1;stroke-width:1.5;stroke-dasharray:none" /><circle
       id="c_6"
       cx="170"
       cy="247"
       r="3.75"
       stroke="#000000"
       stroke-width="2"
       fill="#1f7bfd"
       style="fill:#ffffff;fill-opacity:1;stroke-width:1.5;stroke-dasharray:none" /><circle
       id="c_6-5"
       cx="181.36441"
       cy="186.11073"
       r="3.75"
       stroke="#000000"
       stroke-width="2"
       fill="#1f7bfd"
       style="fill:#000000;fill-opacity:1;stroke-width:1.5;stroke-dasharray:none" /><circle
       id="c_6-5-4"
       cx="195.4856"
       cy="151.34612"
       r="3.75"
       stroke="#000000"
       stroke-width="2"
       fill="#1f7bfd"
       style="fill:#000000;fill-opacity:1;stroke-width:1.5;stroke-dasharray:none" /><circle
       id="c_6-5-7"
       cx="264.5"
       cy="155.5"
       r="3.75"
       stroke="#000000"
       stroke-width="2"
       fill="#1f7bfd"
       style="fill:#000000;fill-opacity:1;stroke-width:1.5;stroke-dasharray:none" /><circle
       id="c_6-5-44"
       cx="290.5"
       cy="185.5"
       r="3.75"
       stroke="#000000"
       stroke-width="2"
       fill="#1f7bfd"
       style="fill:#000000;fill-opacity:1;stroke-width:1.5;stroke-dasharray:none" /><circle
       id="c_6-5-3"
       cx="367.5"
       cy="199.5"
       r="3.75"
       stroke="#000000"
       stroke-width="2"
       fill="#1f7bfd"
       style="fill:#000000;fill-opacity:1;stroke-width:1.5;stroke-dasharray:none" /><circle
       id="c_6-5-0"
       cx="304.5"
       cy="63.500004"
       r="3.75"
       stroke="#000000"
       stroke-width="2"
       fill="#1f7bfd"
       style="fill:#000000;fill-opacity:1;stroke-width:1.5;stroke-dasharray:none" /><circle
       id="c_6-5-78"
       cx="231.5"
       cy="259.5"
       r="3.75"
       stroke="#000000"
       stroke-width="2"
       fill="#1f7bfd"
       style="fill:#000000;fill-opacity:1;stroke-width:1.5;stroke-dasharray:none" /></g><rect
     style="display:none;fill:#ff0000;fill-opacity:0;stroke:#000000;stroke-width:1.49404;stroke-dasharray:none;stroke-opacity:1"
     id="rect13"
     width="502.50595"
     height="298.50595"
     x="0.74702173"
     y="0.74702173" /><g
     id="g13"
     transform="matrix(0.99605274,0,0,0.99335543,0.99470976,0.99469654)"
     style="display:inline"><g
       id="svg_g_bezier_cells-3"
       style="display:none"><path
         d="m 142.4188,0 52.96514,151.14442 68.55836,3.98595 L 304.82008,62.776848 306.48673,0 Z"
         fill="#221155"
         fill-opacity="0.2"
         id="path1-2" /><path
         d="M 304.82008,62.776848 367.817,199.27016 504,278.05372 V 0 H 306.48673 Z"
         fill="#221155"
         fill-opacity="0.2"
         id="path2-0" /><path
         d="m 263.9423,155.13037 26.6474,29.80896 77.2273,14.33083 -62.99692,-136.493312 z"
         fill="#221155"
         fill-opacity="0.2"
         id="path3-6" /><path
         d="M 0,261.0266 181.48872,185.72809 195.38394,151.14442 142.4188,0 H 0 Z"
         fill="#221155"
         fill-opacity="0.2"
         id="path4-1" /><path
         d="m 181.48872,185.72809 49.77308,74.15174 59.3279,-74.9405 -26.6474,-29.80896 -68.55836,-3.98595 z"
         fill="#221155"
         fill-opacity="0.2"
         id="path5-5" /><path
         d="M 231.2618,259.87983 234.90909,300 H 504 V 278.05372 L 367.817,199.27016 290.5897,184.93933 Z"
         fill="#221155"
         fill-opacity="0.2"
         id="path6-5" /><path
         d="M 234.90909,300 231.2618,259.87983 181.48872,185.72809 0,261.0266 V 300 Z"
         fill="#221155"
         fill-opacity="0.2"
         id="path7-4" /></g><g
       id="svg_g_edges-7"
       style="display:inline"><path
         id="svg_path_edges-6"
         d="M 304.82008,62.776848 306.48673,0 M 304.82008,62.776848 367.817,199.27016 M 304.82008,62.776848 263.9423,155.13037 M 195.38394,151.14442 142.4188,0 m 121.5235,155.13037 -68.55836,-3.98595 m 68.55836,3.98595 26.6474,29.80896 m -95.20576,-33.79491 -13.89522,34.58367 m 109.10098,-0.78876 -59.3279,74.9405 m 59.3279,-74.9405 77.2273,14.33083 M 181.48872,185.72809 0,261.0266 m 181.48872,-75.29851 49.77308,74.15174 M 367.817,199.27016 504,278.05372 M 231.2618,259.87983 234.90909,300 M 0,261.0266 V 300 m 0,0 h 234.90909 m 0,0 H 504 m 0,0 V 278.05372 M 142.4188,0 H 0 m 0,0 v 261.0266 m 504,17.02712 V 0 m 0,0 H 306.48673 m 0,0 H 142.4188"
         stroke="#000000"
         stroke-width="2"
         style="stroke-width:1.50799;stroke-dasharray:none" /></g><g
       id="svg_g_seeds-5"
       style="display:none"><circle
         id="c_0-6"
         cx="130"
         cy="152"
         r="3"
         stroke="#000000"
         stroke-width="2"
         fill="#1f7bfd" /><circle
         id="c_1-9"
         cx="360"
         cy="114"
         r="3"
         stroke="#000000"
         stroke-width="2"
         fill="#1f7bfd" /><circle
         id="c_2-3"
         cx="308"
         cy="138"
         r="3"
         stroke="#000000"
         stroke-width="2"
         fill="#1f7bfd" /><circle
         id="c_3-7"
         cx="242"
         cy="197"
         r="3"
         stroke="#000000"
         stroke-width="2"
         fill="#1f7bfd" /><circle
         id="c_4-4"
         cx="290"
         cy="235"
         r="3"
         stroke="#000000"
         stroke-width="2"
         fill="#1f7bfd" /><circle
         id="c_5-5"
         cx="247"
         cy="111"
         r="3"
         stroke="#000000"
         stroke-width="2"
         fill="#1f7bfd" /><circle
         id="c_6-2"
         cx="169"
         cy="246"
         r="3"
         stroke="#000000"
         stroke-width="2"
         fill="#1f7bfd" /></g></g><circle
     id="c_6-5-6"
     cx="249.5"
     cy="10.500003"
     r="3.75"
     stroke="#000000"
     stroke-width="2"
     fill="#1f7bfd"
     style="display:none;fill:#000000;fill-opacity:1;stroke-width:1.5;stroke-dasharray:none" /><circle
     style="display:none;fill:#ff0000;fill-opacity:0.465222;stroke:none;stroke-width:1.5;stroke-dasharray:none"
     id="path13"
     cx="249.52333"
     cy="10.552031"
     r="6" /></svg>
