<?xml version="1.0" encoding="UTF-8" standalone="no"?>
<!-- Created with Inkscape (http://www.inkscape.org/) -->

<svg
   width="1920"
   height="1080"
   viewBox="0 0 507.99998 285.75001"
   version="1.1"
   id="svg5"
   inkscape:version="1.1 (c68e22c387, 2021-05-23)"
   sodipodi:docname="bg.svg"
   xmlns:inkscape="http://www.inkscape.org/namespaces/inkscape"
   xmlns:sodipodi="http://sodipodi.sourceforge.net/DTD/sodipodi-0.dtd"
   xmlns="http://www.w3.org/2000/svg"
   xmlns:svg="http://www.w3.org/2000/svg">
  <sodipodi:namedview
     id="namedview7"
     pagecolor="#ffffff"
     bordercolor="#666666"
     borderopacity="0"
     inkscape:pageshadow="2"
     inkscape:pageopacity="0.0"
     inkscape:pagecheckerboard="0"
     inkscape:document-units="mm"
     showgrid="false"
     units="px"
     width="1080px"
     inkscape:showpageshadow="false"
     showborder="false"
     inkscape:zoom="0.77771465"
     inkscape:cx="200.58771"
     inkscape:cy="560.61693"
     inkscape:window-width="3840"
     inkscape:window-height="2066"
     inkscape:window-x="-11"
     inkscape:window-y="-11"
     inkscape:window-maximized="1"
     inkscape:current-layer="layer1" />
  <defs
     id="defs2" />
  <g
     inkscape:label="Layer 1"
     inkscape:groupmode="layer"
     id="layer1">
    <path
       id="svg_path_edges"
       d="m 70.349178,-2.2216475 0.05577,7.2166206 M 473.55667,-2.2216475 471.45518,8.704749 m -19.16603,-10.9263965 1.20518,9.4517501 M 148.81701,-2.2216475 151.45565,7.9959768 M 490.17457,-2.2216475 489.53176,9.8168109 M 279.11032,-2.2216475 278.06577,10.989945 m -22.686,-13.2115925 1.59675,13.4540745 M 44.06245,-2.2216475 47.100625,6.7429334 m -26.002318,-8.9645809 -0.345856,1.79865122 m 401.868919,-1.79865122 1.82477,9.4361056 m -35.11187,-9.4361056 -1.09526,5.5245759 M 233.84352,-2.2216475 235.95076,8.658247 M 215.39379,-2.2216475 213.20973,12.075461 M 123.68738,-2.2216475 126.43363,10.909117 M 352.22889,-2.2216475 356.88001,8.4955701 M 97.076468,-2.2216475 84.194665,9.2816216 M 172.9404,-2.2216475 168.02239,5.5996478 m 19.40788,-7.8212953 6.37908,20.2178775 M 99.723336,-2.2216475 103.7754,19.216252 M 309.44059,-2.2216475 303.30482,19.357363 m 27.32401,-21.5790105 3.05709,19.0561505 M 20.752451,-0.42299628 8.4110416,10.386617 M 20.752451,-0.42299628 27.022344,13.615578 M 8.4110416,10.386617 -4.1545568,5.1638113 M 168.02239,5.5996478 151.45565,7.9959768 m 84.49511,0.6622702 -17.03304,9.948597 M 70.404938,4.9949731 84.194665,9.2816216 M 471.45518,8.704749 453.49433,7.2301026 M 235.95076,8.658247 243.09124,16.48279 M 168.02239,5.5996478 172.06972,24.03683 M 47.100625,6.7429334 64.062593,11.62022 M 356.88001,8.4955701 379.80197,10.493168 M 70.404938,4.9949731 64.062593,11.62022 M 424.44614,7.2144581 448.81563,14.729575 M 151.45565,7.9959768 147.60385,13.147281 M 47.100625,6.7429334 40.057826,16.685225 M 8.4110416,10.386617 9.2696887,26.155709 M 84.194665,9.2816216 91.721639,30.436383 M 471.45518,8.704749 l 8.90562,8.114074 m 22.21562,-3.992568 8.06607,-4.7246647 m -21.11073,1.7152206 13.04466,3.0094441 M 356.88001,8.4955701 351.7349,20.927169 M 424.44614,7.2144581 418.12432,20.015682 M 489.53176,9.8168109 480.3608,16.818823 m -26.86647,-9.5887204 -4.6787,7.4994724 M 27.022344,13.615578 40.057826,16.685225 M 27.022344,13.615578 17.512187,27.519833 M 126.43363,10.909117 103.7754,19.216252 m 153.20112,-7.983825 16.10191,3.53473 m 4.98734,-3.777212 25.23905,8.367418 m 199.2716,-6.531108 1.21372,22.207579 M 213.20973,12.075461 193.80935,17.99623 M 388.23901,3.3029284 403.38381,21.529112 m -15.1448,-18.2261836 -8.43704,7.1902396 m -122.82545,0.739259 -7.01609,6.543316 m 28.10534,-6.785798 -4.98734,3.777212 m -125.47458,-1.619876 -18.07089,1.552135 m 83.67677,-2.623955 5.70799,6.531383 m -71.31387,-5.459563 7.4491,13.663449 M 64.062593,11.62022 64.708005,23.334637 M 379.80197,10.493168 375.51055,29.125712 M 243.09124,16.48279 231.48916,26.407702 m -105.05553,-15.498585 3.09933,3.790299 m 113.55828,1.783374 6.86919,1.292953 M 40.057826,16.685225 41.278543,23.403921 M 333.68592,16.834503 314.65859,30.061681 m 19.02733,-13.227178 10.85157,5.798903 m -71.45906,-7.866249 -0.0491,13.387817 m 175.7863,-13.425399 0.15983,2.867881 m -229.8221,1.768977 12.3358,7.041269 m -127.71378,-7.19145 -7.09996,11.515879 m 122.24228,-12.125287 0.23564,0.759589 m 30.80707,-1.59069 4.09418,21.163639 m -34.90125,-19.572949 -6.06912,14.672019 m -83.55128,-19.339036 -0.88908,16.824693 m 351.71692,-14.705286 -0.33537,3.179655 m -438.746887,3.405443 15.508899,4.811748 m 392.188068,-10.618213 17.6816,18.11958 M 448.97549,17.597456 436.3634,32.071497 M 193.80935,17.99623 l -3.64337,8.092573 m 227.95834,-6.073121 18.23905,12.055815 m -395.084827,-8.667576 -3.85057,6.749246 m 314.306927,-9.225998 -7.19741,1.706237 m 135.48794,-2.634928 20.4998,16.576911 M 351.7349,20.927169 361.87093,31.880212 m 56.25339,-11.86453 -6.05002,3.381305 m -67.53681,-0.763581 -6.25333,16.170373 M 480.02543,19.998478 466.65706,35.717036 m -235.1679,-9.309334 1.57674,9.019928 M 403.38381,21.529112 390.7639,36.499829 m 12.61991,-14.970717 8.69049,1.867875 m -347.366295,-0.06235 -7.920562,4.881032 m 7.920562,-4.881032 16.142163,12.282771 m 91.219552,-11.580578 18.09626,2.051973 m -18.09626,-2.051973 -7.0063,5.371708 m -10.01047,-2.597808 -11.53889,9.377815 m 11.53889,-9.377815 10.01047,2.597808 M 56.787443,28.215669 50.702845,50.431089 m 222.326485,-22.276115 14.51621,7.812754 m 124.52876,-12.570741 2.47411,22.911689 m -111.24359,-26.951313 1.62832,6.00085 m -31.90381,2.796761 -15.48599,12.590333 M 37.427973,30.153167 23.719131,33.776711 M 9.2696887,26.155709 17.512187,27.519833 m 19.915786,2.633334 10.586386,18.658191 M 9.2696887,26.155709 0.07485591,30.842301 m 17.43733109,-3.322468 6.206944,6.256878 m 351.791419,-4.650999 -13.63962,2.7545 m -148.78669,2.15824 -20.55801,-2.363982 m 182.98432,-2.548758 8.52265,9.01547 m -218.96978,-8.732644 0.66724,15.414003 m 24.43532,-18.733738 2.36025,5.585667 m 243.83714,0.397027 0.19436,5.421816 m -223.47349,-3.454861 6.18066,9.737878 m 85.66824,-18.418117 -17.3876,10.609515 m 74.32539,-4.087516 -5.04945,14.360038 M 233.0659,35.42763 l -13.801,8.3487 m 13.801,-8.3487 12.33253,5.45032 M 23.719131,33.776711 23.776691,47.125117 M 143.51402,36.188545 131.35072,34.005439 M 0.07481538,30.842301 -4.1545973,30.705647 M 0.07481538,30.842301 10.050214,51.963136 M 128.64384,31.524109 107.27152,39.783713 m 197.66162,-14.4255 3.40346,2.782298 m -164.82254,8.048034 7.01869,13.354182 m -21.88887,-18.018618 2.70688,2.48133 m 259.41314,2.49439 17.49541,12.713463 m -93.60072,-19.151611 -6.32199,-1.92117 m 82.4273,8.359318 -6.7307,1.641353 M 192.52623,31.67447 189.32139,52.616497 M 436.55773,37.493313 414.54841,46.308676 M 314.65859,30.061681 325.83327,42.019869 M 308.3366,28.140511 303.36616,50.536787 m -15.82062,-14.569059 -4.38966,16.478236 m -151.80512,-18.440525 0.38798,24.232023 m -40.017101,-27.801079 4.953802,0.295748 m -4.953802,-0.295748 -10.871471,5.181025 m 257.433992,3.186371 15.73514,8.393269 M 96.675441,30.732131 107.27156,39.783713 m 396.51858,-4.749879 6.85235,0.326219 m -172.35833,3.443726 -10.80555,3.806315 m 109.07912,-5.116781 11.91018,15.013323 m 55.32223,-17.472802 -3.26491,1.541555 m -116.49203,1.565793 -4.69522,19.195062 m 121.18725,-20.760855 -4.80271,7.696706 m -29.06546,-8.555059 -0.20228,4.681013 M 80.850168,35.617408 79.970193,37.691892 m 0,0 -25.451232,18.670131 M 245.39843,40.87795 l 8.65618,-1.938568 m -8.65618,1.938568 -10.28644,16.565844 M 79.970193,37.691892 86.939924,62.605962 M 23.776731,47.125117 48.014359,48.811358 m 206.040251,-9.871976 3.48873,1.805925 m -91.81268,4.077234 -15.19791,4.720186 m 175.30052,-7.522858 -15.50362,19.778432 m -6.96349,-11.261514 -20.21028,1.909177 M 219.2649,43.77633 217.6022,55.408541 m 40.50931,-13.594062 23.55398,12.510131 m 44.16778,-12.304741 1.64534,0.590225 m -220.20705,-2.826381 0.83894,8.609853 m 387.61202,-4.121471 -18.3539,4.174369 m -149.89001,-5.83637 8.82806,22.147744 m -170.57601,-19.935297 11.1475,10.075732 m 80.66518,-14.152966 0.56817,1.069172 m 237.61101,2.457616 6.86079,18.018468 m -244.4718,-20.476084 -3.65352,25.550425 m 211.99679,-26.966855 10.91384,8.048415 m -10.91384,-8.048415 -17.98687,12.108587 m -145.10175,-1.969849 6.96349,11.261514 M 23.776731,47.125117 21.522082,50.112138 M 356.82148,46.24025 373.33995,57.614331 M 356.82148,46.24025 354.0193,47.197048 m 0,0 -10.89886,18.082308 M 150.53275,49.542727 145.46323,59.78715 m 269.08518,-13.478474 -0.61257,1.347213 M 21.522082,50.112138 10.050255,51.963136 m 398.209055,-2.749844 5.67653,-1.557403 M 108.1105,48.393566 88.835314,62.821378 M 408.25931,49.213292 395.38954,62.730291 M 21.522082,50.112138 27.127553,64.47737 m 386.808287,-16.821481 9.83099,13.432027 m 53.60179,-12.641452 1.31291,19.002089 M 108.1105,48.393566 117.05808,59.99652 M 10.050255,51.963136 2.4537554,60.34703 m 45.5606036,-11.535672 2.688486,1.619731 m 397.678005,2.377512 -24.61402,8.279315 m -140.61095,-8.641952 -1.49039,1.878646 m -230.962645,-3.893521 3.816116,5.930934 m 180.593029,1.081771 -16.69908,-1.283915 m 16.69908,1.283915 10.38417,11.794595 m 36.16933,-14.913779 0.0349,7.292486 M 176.87817,54.898273 189.3214,52.616497 m 28.28082,2.792044 -21.53787,2.588087 m -64.3256,0.240834 13.72449,1.549688 m 303.00468,-7.280514 -0.0871,0.301965 m 0,0 3.66927,13.646847 M 176.87816,54.898273 168.75681,67.691001 m 20.56458,-15.074504 6.74295,5.380131 m -64.3256,0.240834 -4.16216,2.181929 m 154.12376,1.197705 -26.43183,6.183744 m -37.66631,-12.392299 0.81071,0.751338 m 154.92704,1.454452 -11.84421,12.57934 m 11.84421,-12.57934 5.99803,-0.278087 m -160.92507,-1.176365 2.61517,21.04544 m -93.4515,-16.785928 -10.5185,-0.422871 m 28.40515,-0.20937 6.83964,10.475251 M 2.4537554,60.34703 -4.1545568,61.045477 M 2.4537554,60.34703 13.177171,73.080968 M 127.57658,60.419391 132.07167,87.769003 M 423.76683,61.087916 421.35642,74.861053 M 117.05808,59.99652 108.21596,76.3075 m 271.12202,-18.971256 5.02869,4.52515 M 27.127553,64.47737 40.927387,67.487093 m 269.402263,-5.688792 0.014,4.310857 M 27.127553,64.47737 18.617319,73.007347 m 483.965991,-10.716784 8.05918,1.141169 m -8.05918,-1.141169 -13.64865,12.010076 M 88.835314,62.821378 103.20588,76.631106 M 88.835314,62.821378 86.939924,62.605962 m 109.124416,-4.609334 -0.004,22.697808 M 86.939932,62.605962 l -7.69648,4.92812 M 395.38954,62.730291 384.36667,61.861394 m -329.847709,-5.499371 0.02534,0.876018 m 340.845259,5.49225 12.71053,16.083361 M 361.49576,70.193671 344.39297,66.518243 M 54.544285,57.238041 40.927408,67.487093 m 240.772952,-5.869997 2.44478,4.537601 m -229.600855,-8.916656 6.542526,7.052675 m 18.156653,3.243366 -18.156653,-3.243366 m 241.479939,4.890536 -18.42161,-3.026555 m 100.22155,-4.293303 -4.32494,23.651553 M 310.80093,66.40726 328.7448,69.891635 m 7.56187,-5.133797 6.81377,0.521518 m -6.81377,-0.521518 -7.56187,5.133797 m -84.08636,0.643606 -22.03003,7.234505 m 120.49203,-12.49039 1.27251,1.238887 m 17.10279,3.675428 3.22013,13.074121 M 79.243443,67.534082 81.915187,91.939589 m 370.134933,-25.484141 14.30933,5.104127 m -156.0158,-5.450417 -7.77692,3.072094 m 41.82622,-2.663009 3.58952,24.331112 M 478.68153,67.448553 466.35945,71.559575 M 40.927387,67.487093 39.197416,80.774992 M 310.34365,66.109158 310.80093,66.40726 M 61.08679,64.290716 60.412725,87.591318 M 310.80093,66.40726 313.99927,87.8763 M 168.75681,67.691001 180.56444,81.925429 m 122.00229,-12.744177 -3.8506,22.094726 M 168.75681,67.691001 157.72354,71.877775 m 320.95799,-4.429222 10.25313,6.852086 m -234.47667,-6.935735 -8.96183,1.873485 m 8.96183,-1.873485 0.81052,0.435936 m 28.87661,-1.646143 -4.39964,17.069064 M 255.26851,67.80084 267.75564,89.651853 M 452.05012,66.455448 442.10814,82.91242 m -423.490821,-9.905073 -5.440148,0.07362 m 453.182279,-1.521391 -0.2158,17.335161 M 18.617319,73.007347 29.194402,88.443985 m 216.301758,-19.205596 -0.83772,1.296852 m 84.08636,-0.643606 -0.39717,17.470932 M 13.177171,73.080968 2.5359608,90.037951 m 242.1224792,-19.50271 -2.12569,20.73871 m -90.22988,-21.01155 -17.75421,17.620445 m 17.75421,-17.620445 5.42067,1.615374 m 0,0 3.40965,16.616434 M 421.35642,74.861053 442.10814,82.91242 M 222.62841,77.769746 237.2564,95.171319 m -14.62799,-17.401573 -1.60033,-0.564427 m -117.8222,-0.574213 5.01008,-0.323606 m -5.01008,0.323606 -15.931565,16.984188 M 221.02808,77.205319 208.20981,86.450991 M 108.21596,76.3075 122.20624,91.836569 m 366.72842,-17.53593 2.85314,16.040424 m -70.43138,-15.48001 -7.99524,4.992663 M 39.197416,80.774992 54.652748,89.809921 M 39.197416,80.774992 29.194402,88.443985 m 151.370038,-6.518556 12.28919,0.523563 m -12.28919,-0.523563 -10.20176,11.66217 M 408.10007,78.813652 390.36769,90.957705 m -25.65182,-7.689913 15.32586,2.245155 m 28.05834,-6.699295 5.26111,1.040064 m -48.64531,3.414076 -10.2296,8.753952 m -40.487,-4.145444 -15.28314,3.399678 m -102.65597,-10.581542 12.14965,5.756555 m 205.15137,-6.597275 1.12278,6.380452 m -218.4238,-5.539732 -3.20653,1.754556 m 121.14564,5.427308 7.27684,3.351572 m -128.42248,-8.77888 -5.21304,19.155518 m 92.10489,-18.380749 16.81534,10.054696 M 279.74548,83.223761 267.75564,89.651853 M 161.13319,88.494209 146.97051,98.511772 m 267.51345,-12.277604 15.45109,15.853962 m -268.80186,-13.593921 9.22949,5.09339 m 295.78097,-4.692862 -13.68167,3.601816 m -37.97802,-6.262385 -5.42966,16.307502 m 33.05384,-19.62925 1.64471,5.732154 m 22.3908,0.250163 9.81971,5.675668 m -147.61573,-7.207838 13.53311,6.03477 m -13.53311,-6.03477 -7.07152,3.865305 m 58.76562,-5.714925 3.29984,4.424142 M 60.412725,87.591318 54.652748,89.809921 m 5.759977,-2.218603 13.036683,6.620026 m -44.255006,-5.767359 -1.915044,5.996737 m 215.253392,-3.166771 23.37381,1.978533 m -57.69675,-6.801493 1.69198,6.483423 m -122.238561,1.19889 31.438311,4.501563 M 54.652748,89.809921 46.386496,104.36541 M 2.5359608,90.037951 24.565505,96.323775 M 321.27611,91.227872 319.41239,102.84813 M 134.54866,87.882846 146.97051,98.511772 m -12.42185,-10.628926 -2.47699,-0.113843 m 166.64446,3.506975 -2.15531,2.002479 m -54.02807,-2.004506 -5.27635,3.897368 m -105.18473,-7.402316 -9.86543,4.067566 m 321.54661,-3.191995 8.70913,3.851979 m -62.09429,-1.538848 -7.02612,-1.020616 m 7.02612,1.020616 10.23622,15.416555 m -230.24123,-12.786661 2.83138,10.192921 m 174.78841,-12.931165 6.5038,1.172389 m -6.5038,-1.172389 -6.10173,2.547982 m 101.87211,-4.752763 -7.86469,11.420016 m 16.57382,-7.568037 8.10111,22.883297 m -77.22152,-25.442761 -4.85748,9.540834 M 2.5359608,90.037951 l -6.6905176,2.17667 m 358.6408268,-0.192877 6.82851,12.715926 m -151.41299,-11.803256 16.2552,11.620676 m -16.2552,-11.620676 -11.38113,17.917626 m 69.23498,-21.200187 -1.84908,3.600631 m 210.0568,1.317921 15.82444,-4.229342 m -149.90706,3.056274 -2.49723,8.901133 m 153.15065,-11.367325 18.10833,0.916592 m -214.08167,1.43072 0.53671,13.074963 M 475.96336,94.570405 466.38778,115.84751 M 27.279358,94.440722 46.386496,104.36541 M 378.48409,99.477923 361.31478,104.73767 M 81.915187,91.939589 73.449408,94.211344 m 8.465779,-2.271755 5.359128,1.675705 m -59.994957,0.825428 -2.713853,1.883053 m 97.640735,-4.487206 -3.1047,6.798298 m 118.15486,-3.463548 -3.39484,8.043231 M 73.449408,94.211344 63.798284,120.4223 M 491.7878,90.341063 l 0.74636,0.590082 m -114.05007,8.546778 5.77997,20.893367 m -118.3575,-27.118806 1.75983,14.415786 M 87.274315,93.615294 l 0.388914,0.51801 m 404.870931,-3.202159 -0.25102,19.625935 m -152.89963,-8.25861 -14.71737,6.25839 M 24.565505,96.323775 18.89314,120.93834 m 68.770089,-26.805036 1.21917,4.339119 m 98.758191,3.132087 -14.44653,2.17601 m -26.22355,-5.268748 0.53914,2.486778 M 88.882399,98.472423 107.30696,115.60561 m 301.74734,-13.06394 14.55894,7.04355 m -235.97265,-7.98071 10.88007,9.24753 m 210.53364,-8.31037 -8.45039,3.83259 m -61.2204,-4.07579 5.87367,14.74457 M 88.882399,98.472423 84.525463,121.24884 m 234.886927,-18.40071 -18.44237,5.61773 m 134.91814,-8.40127 -5.95311,2.02354 m 5.95311,-2.02354 13.2625,20.64695 m -301.64101,-19.71299 18.35788,12.24139 m 153.54486,-10.39181 5.25375,5.70873 m -177.15649,-7.55831 -7.1089,12.01738 m 289.5343,-10.9278 -6.32181,7.49709 m -304.5117,-10.950353 -0.59921,10.249283 m 242.81245,-4.14648 -2.39399,15.32022 m -312.534294,-15.69248 3.015069,12.11078 m 123.792495,-12.69567 -4.96238,9.6222 m 156.43446,-4.84586 0.72283,7.83539 m 75.21494,-10.01799 -4.51258,15.08673 m -169.93434,-16.9059 7.70457,-1.34054 m -93.46081,9.80138 -21.89842,-4.13178 m 107.65466,-4.32906 -12.62723,16.44886 m 20.3318,-17.7894 9.34217,12.18669 M -4.1545568,105.81109 16.707219,120.45728 m 406.906021,-10.87206 -0.64865,10.87557 m 69.31855,-9.90371 -20.43214,9.70774 m -204.18461,-12.59655 -24.46266,7.73297 m 249.07941,-4.84416 9.55372,10.87104 m -204.73933,-15.0747 -9.98332,5.4072 m 9.98332,-5.4072 3.87249,2.11244 m -160.56927,4.55007 4.02708,12.92405 m 156.54219,-17.47412 4.55108,8.5905 m -107.00044,-6.20432 2.01205,10.36035 m 86.5815,-9.45177 -16.82104,-1.31552 m -2.62678,-2.77683 2.62678,2.77683 m -151.79084,-1.56095 -2.7637,4.95431 m 171.37558,-2.07784 3.46447,29.50948 m -124.71115,-28.03016 -21.4397,12.70004 m 180.96114,-9.54773 -9.76685,5.42053 m 9.76685,-5.42053 8.7645,6.27844 m -28.63237,-5.61433 10.10102,4.75642 m -10.10102,-4.75642 -8.58869,23.10537 m -26.63924,-29.71663 -2.32587,21.64212 m -102.09977,-18.84728 2.36415,0.16278 m 177.0255,3.64032 -11.10371,5.62765 m 11.10371,-5.62765 13.66361,3.01485 m -251.61383,-4.45228 8.43167,-1.76715 m -8.43167,1.76715 -13.510595,10.87384 m 74.435315,-13.07673 5.95077,10.46065 m 141.43967,-2.05059 0.63426,11.19134 m -73.05265,-17.60288 -1.63978,14.81064 m -125.82532,-16.37342 10.54127,24.4496 m 334.28319,-22.90821 5.82469,0.46766 m -5.82469,-0.46766 -11.41243,5.33169 m -399.749095,-4.23535 -25.483021,7.14966 m 442.469236,-7.77834 5.46322,4.41731 m -87.58694,0.10647 -24.14361,1.40732 m -343.413231,-1.32133 -20.8617758,9.87896 m 88.6800198,-9.0874 -18.402188,1.39335 m 268.030195,0.0285 -1.65027,12.66347 m -283.101635,-18.85797 2.996129,1.88957 m 449.439166,3.06238 8.80563,-1.21606 m -87.6779,0.24873 -16.46554,7.04461 m 16.46554,-7.04461 17.70416,11.21128 m -356.143287,-10.42323 9.270902,5.23061 m 80.386085,-2.61608 25.25707,-1.40706 m 302.39734,-1.02819 -8.74366,13.82391 M 213.52976,121.004 l -12.99705,0.20844 m 12.99705,-0.20844 14.57058,14.03875 m 243.75066,-14.77788 5.07928,13.65148 m -424.532586,-15.55059 11.40059,2.05654 m 320.465776,-0.0509 5.10364,2.50418 m -336.970006,-4.50975 -9.505099,26.40216 m 406.258065,-24.05638 -7.77885,10.89158 m -82.45102,-11.54523 1.19966,1.72072 m -343.413231,-1.32133 2.185921,0.48106 m 44.905144,-0.51604 2.324991,2.21989 m 134.409435,-1.4298 -1.09319,1.24392 m -55.01169,3.48367 -1.37886,4.78169 m 217.07148,-8.94306 -0.59596,4.94423 m 36.56684,-5.26185 -6.72363,1.41448 m 6.72363,-1.41448 10.40772,6.04441 m -232.3166,-3.64203 -1.71384,5.72493 m -153.57547,-8.64996 2.139044,2.39847 m 178.407336,-0.8805 -0.65748,21.13804 M 23.918544,123.62585 42.892595,144.76792 m 346.475105,-21.89245 -8.44319,25.89711 m -287.128145,-22.29313 1.548407,9.07646 m -29.221497,-12.91372 1.102329,13.32989 m 292.298886,-9.24924 -17.74299,14.33105 m -317.862956,-17.42804 -2.88636,-0.28904 m 295.224196,9.66731 10.90564,4.56286 m -10.90564,-4.56286 -15.05207,8.095 m -128.7357,-11.51082 -18.11904,8.90019 m 205.17492,-11.76565 9.07706,21.68724 M 21.032184,123.33681 15.884547,143.25622 m 390.614503,-15.75082 3.49075,16.37625 m -237.52119,-14.29335 8.22412,21.02613 m -85.347958,-15.05852 29.918058,4.93307 m 17.78614,-9.76731 11.3006,7.76682 m -11.3006,-7.76682 -16.76907,7.56639 m 141.6874,-6.20084 -15.29075,6.42215 m 15.29075,-6.42215 18.36464,11.13961 m -44.76799,-13.01495 -13.46361,4.83082 m 13.46361,-4.83082 11.1126,8.29749 m 240.41665,-3.25734 -16.16292,-1.33573 m -144.42708,1.41786 -5.34118,2.23282 m 5.34118,-2.23282 9.2783,5.71973 m -14.61948,-3.48691 -7.91069,21.93077 m -223.906558,-23.94184 -3.748849,8.13282 m 401.497277,-8.4367 6.61372,10.97202 M 67.225604,135.97208 81.247245,146.23786 M 67.225604,135.97208 55.099922,151.00136 m 421.830358,-17.08506 -5.83887,8.98479 m -30.42266,-11.22903 -14.29314,14.8616 m 14.29314,-14.8616 0.70306,-0.0689 m -287.02224,6.88537 2.18134,12.45082 m 71.56943,-15.89661 -7.19118,16.19699 m 220.46265,-19.63657 13.37576,15.44762 m -438.863023,-3.79455 -20.0391038,-0.0399 m 345.9360568,-2.16235 2.40595,8.12088 m -91.5109,-10.6654 0.35838,17.62221 m 48.16938,-15.03246 18.04702,18.39863 m -18.04702,-18.39863 -4.2719,-0.93739 m -205.336487,3.527 -10.348677,2.54913 m 44.008174,-5.47258 -25.25096,16.50784 m 196.92795,-17.11139 -6.35373,1.10837 m 180.51273,1.63099 -16.34384,4.14965 m -363.151647,-3.36205 8.408537,13.58439 m -57.111865,-12.5052 1.061536,5.56303 m -28.069584,-7.07473 2.599309,5.85171 m 452.607554,-6.20684 8.88454,16.17293 M 81.247245,146.23786 75.918606,159.17537 m 50.361294,-20.88731 -1.01707,2.20092 m 73.51921,3.10537 -18.08931,7.02008 m 319.01419,-4.39038 10.93557,0.42502 M 409.9898,143.88165 390.78847,157.8363 m 19.20133,-13.95465 7.87033,3.9632 m -399.376274,1.26308 24.991493,1.63605 m 155.306691,-7.14963 13.90143,10.2502 m 73.64847,-10.61772 -22.89187,14.84922 m 162.93554,-11.54239 -8.51548,1.31119 m 8.51548,-1.31119 12.28748,18.7949 m -148.08441,-24.05846 -3.14127,2.12825 m 212.26951,2.8257 -5.69693,11.03809 m -368.74716,-16.77316 -0.007,0.2763 m 0,0 3.10486,9.2844 m 215.82716,-0.87491 -17.13723,13.56546 m 17.13723,-13.56546 14.28565,8.13595 m 59.38703,-9.46587 -0.77652,17.16363 m -361.553899,-13.49153 20.3889,7.65842 m 210.413319,-15.94854 1.10548,0.17152 m 0,0 0.49544,5.22957 m -159.57256,1.42176 20.23556,7.47763 m 7.93508,-6.588 13.89176,4.91331 m 284.32488,-8.80188 -2.12487,9.02404 m -434.138849,-6.96685 -5.025494,19.10345 m 143.072553,-17.27207 -7.93507,6.588 m 220.0057,-9.11723 12.32296,0.3625 m -12.32296,-0.3625 -10.12844,8.90064 m -70.54025,-8.6828 15.57466,24.36078 m -15.57466,-24.36078 -7.99601,18.84868 M 55.099922,151.00136 43.954131,150.33095 m 11.145791,0.67041 0.429784,0.51559 m 0,0 5.843813,25.98614 m 319.550991,-28.73051 9.86396,9.06372 m -262.42818,-7.78662 -4.12083,16.081 m -80.285329,-15.79973 -0.478782,0.41303 m 137.217381,-0.12955 -0.71724,1.30046 m -136.500141,-1.17091 -3.522631,12.40195 m 180.956442,-11.90624 20.06722,9.79966 m -61.00089,-9.12446 -9.55281,3.93773 m 9.55281,-3.93773 10.66986,20.61116 m 303.36464,-15.26391 -14.03404,1.81188 m -259.06679,-7.83433 -5.88737,3.05678 m -66.42595,3.23084 -0.0172,14.66842 M 170.4226,155.85262 165.29281,175.01 m 328.7171,-17.74786 5.64132,10.45578 m -236.21124,-9.64187 -10.40514,-1.94448 m 10.40514,1.94448 9.47483,10.69358 m -196.996294,-9.59426 1.36225,5.75634 m 22.723604,-7.65859 -10e-4,9.46701 m 112.68022,-12.89558 -21.59773,18.6796 m 261.53695,-16.44937 -13.78533,9.23481 m 13.78533,-9.23481 12.83169,14.76296 m 14.52156,-11.76372 -6.26869,11.83861 m -261.02378,-17.06808 2.33831,0.45192 m -175.06907,8.84946 -24.361433,7.34876 m 199.430503,-16.19822 1.60056,11.98675 m 36.41258,-10.15165 -3.31879,3.60944 m 108.75696,-2.43029 -1.23098,12.79068 m -317.2894,-6.95547 8.279568,19.9602 m 192.744092,-22.06678 8.73976,-1.29834 m 167.36748,5.26747 13.99517,6.55361 m -13.99517,-6.55361 -11.70202,6.50277 m -164.40522,-10.4719 -10.45616,19.23863 m 160.26824,-22.44168 1.14789,7.77239 m -142.22021,-5.86768 4.43895,18.81841 m 65.09624,-19.06167 0.76037,2.66727 m -40.07487,5.31158 -7.02192,1.29303 m 7.02192,-1.29303 12.52671,10.9317 M 77.280938,164.93171 61.373603,177.50309 m 15.907335,-12.57138 12.648027,5.94624 m 237.121345,-8.13772 14.53661,11.01552 m -124.96449,-7.47253 13.71596,14.023 m -13.71596,-14.023 -10.27505,15.92876 m 120.70293,-19.47175 -7.03853,-0.57521 m 179.6396,5.5529 10.99119,1.54496 m -237.72759,-0.49325 -6.44078,14.64957 m 233.17718,-15.70128 -7.73919,12.54097 m -53.07474,-14.9493 15.2541,18.59197 m -15.2541,-18.59197 -0.17428,0.019 m 0,0 -7.5843,6.23354 m -306.83941,-5.4314 17.47196,11.78351 m -17.47196,-11.78351 -12.68268,7.54744 m 208.45492,-11.5131 -4.8787,6.22383 M 100.0033,166.74018 89.928882,170.878 m 302.007468,-5.26926 13.44525,5.90256 m -305.3783,-4.77112 11.55348,6.93799 m -98.098417,-5.46674 -17.6129198,-0.74058 m 152.7332768,4.72493 16.71417,2.81427 m 0.44181,0.60471 20.99771,0.92987 m 278.72198,-5.70684 8.25286,0.0748 m -8.25286,-0.0748 -11.36292,13.06382 m -62.15512,-18.29287 -10.4767,14.0463 m -39.87281,-5.89924 15.65527,-3.65435 m 48.13949,1.40985 6.41948,15.58475 m 19.27771,-15.53391 -1.83683,9.56657 M 89.928882,170.87799 84.41909,191.05603 m 389.28816,-20.14336 8.17029,11.14698 m -333.29882,-9.86388 -6.8673,5.71846 m 173.42158,-9.52534 -11.62548,4.59985 m 11.62548,-4.59985 9.56006,19.58402 m -133.60731,-15.44872 15.26154,9.68783 m 135.23955,-8.45623 -3.50185,9.80283 m -324.626627,-15.3472 2.132922,2.28331 m 175.494465,2.02946 -0.4404,0.002 m 0,0 -3.91294,4.01852 m 170.5097,-6.44317 7.76216,9.58241 m -199.71138,-4.67381 0.44181,0.60471 m -150.143415,-5.12 7.170353,20.49614 M 165.7347,175.61487 165.61442,196.131 m 137.8931,-23.14214 -4.07226,4.80807 m -112.70285,-1.25219 -1.53419,12.2686 m -73.64144,-15.13506 0.35251,3.86732 m 142.24579,1.01399 12.31904,4.85977 m -12.31904,-4.85977 -10.98067,8.55274 m 49.28913,-8.70387 -13.11164,11.00192 m 13.11164,-11.00192 6.97172,-0.61153 m 192.47685,2.46197 18.73038,15.28167 m -18.73038,-15.28167 -10.03457,1.80072 m -340.16612,-4.14542 -1.39412,11.1031 m -28.40801,-11.47187 -15.075467,20.0286 m 15.075467,-20.0286 12.07491,15.65261 m 214.10079,-9.63947 -13.39193,4.41429 m -94.17284,-7.69489 12.65419,6.83419 m -12.65419,-6.83419 -0.18191,0.0283 m 0,0 -7.98332,8.07447 m -160.981471,-10.8776 -3.488768,7.38622 m 371.357209,-3.76065 -15.42116,6.77402 m -75.73581,-4.3441 15.10672,24.45817 m 76.05025,-26.88809 11.89342,13.08922 m -234.78809,-12.0059 1.87402,5.10942 m 91.21395,-9.52463 7.28663,25.33515 m 74.73776,-23.47693 -16.45538,0.0287 m 116.87327,2.3758 -4.31207,13.02818 m -23.474,-11.18623 -1.63034,8.96511 m -71.00148,-13.21168 8.91781,18.36212 m -123.90334,-14.59791 1.04418,1.79065 m 97.48597,-5.52604 -11.81256,28.33294 M 222.35499,188.3807 208.22131,187.32141 m 59.29699,-2.11155 11.8336,4.20037 m 45.34116,-1.43735 -6.7247,19.70488 m -50.45006,-22.4679 -7.17786,14.77008 m -75.14222,-11.16676 8.38681,5.83439 m -8.38681,-5.83439 -11.81568,8.08032 m 69.79187,-9.78132 1.24927,11.84983 m -22.06869,-10.58131 4.93743,18.15276 m -179.060143,-23.42733 -25.470639,7.8847 m 185.459672,-3.66943 -3.29179,6.00722 m 206.87156,-6.23262 -20.5815,11.13525 m 20.5815,-11.13525 2.01972,0.80668 m -365.588523,-4.79655 8.329608,2.27264 m 357.258915,2.52391 6.97604,18.49392 m -141.44494,-16.98638 4.27298,13.72842 m -90.03985,-8.49108 11.34449,-1.31894 m -64.61222,-4.31133 -16.3331,4.18076 m 69.60083,1.44951 -5.68094,19.2383 m -130.019339,-28.99655 19.081448,8.20548 m 375.494931,-0.22812 25.10434,2.22112 m -337.24817,-6.0705 6.12609,7.15363 m 58.48613,-2.8423 4.05779,16.44652 M 57.884751,184.88931 56.561885,185.37877 M 20.71073,195.69706 -4.1545568,194.17875 m 60.7164418,-8.79998 -4.062104,24.61492 m 31.919309,-18.9377 12.414733,6.51805 m -12.414733,-6.51805 -7.452891,2.0388 m 47.018001,0.10326 -4.01238,8.686 m 321.16356,-7.66617 -20.33854,12.17872 m -160.4564,-6.41667 -15.91676,-1.01793 m -97.98029,-2.79108 18.89006,0.15298 m -88.367251,-3.22911 -3.232356,26.47905 m 367.401537,-25.35596 7.88571,1.9425 m 3.44004,-3.29371 -3.44004,3.29371 m -275.63855,0.73311 14.30413,16.926 m -14.30413,-16.926 -7.76812,-0.76265 m 311.95105,-1.04305 3.2843,7.60063 m -220.50933,-2.70849 6.50959,11.58385 m -120.40664,-15.39286 -4.91294,19.64027 M 22.761638,190.99083 20.71073,195.69706 m 144.90369,0.43378 -0.28097,0.19306 m 79.09023,2.6381 -3.71131,5.17001 m -143.878547,-6.55797 5.833747,10.93112 m 62.66588,-12.18126 -2.01754,25.5271 m 120.30897,-18.71236 23.09701,-0.007 m 142.2992,-6.97154 1.49319,13.10963 m -330.54246,-7.38596 14.1794,13.82417 m -14.1794,-13.82417 -14.54208,7.17816 m 284.94772,-11.04509 0.84212,0.21413 m -0.84212,-0.21413 -19.01001,16.22635 m 19.85213,-16.01222 11.89168,14.09456 m 77.73851,-9.63738 23.74314,3.41355 m -220.96803,-2.96334 -5.30445,7.11348 m -37.60806,-6.1201 -13.41995,2.40144 m -206.58169,-10.8364 0.573309,3.99123 m 429.230241,9.58173 25.68899,2.84322 m -235.4909,-7.98122 8.47409,16.06443 m 231.66331,-17.50802 -4.6465,9.42481 M 21.284039,199.68829 33.061674,211.27025 M 21.284039,199.68829 9.262595,216.80155 m 411.534245,-10.40495 -0.95076,3.50831 m -192.55366,-3.37146 -2.59283,2.76817 m -172.199809,0.69207 -19.438107,1.27656 m 175.925636,-1.49511 15.71228,-0.47352 m 82.0223,-6.1697 4.1742,3.30295 m 108.94999,3.47004 -16.73482,2.42089 m -124.79083,-2.07368 -11.4704,1.31166 m -57.86272,-1.78864 -8.42408,8.61729 m 24.13636,-9.09081 4.02869,19.3956 m 49.59215,-18.4451 11.12934,21.5266 m 215.14314,-25.67675 6.04958,-3.01981 m -6.04958,3.01981 -9.54072,22.25339 m -442.552409,-18.36167 8.830002,11.66767 m -52.067188,-4.85981 -13.4171518,-2.2742 m 322.8724568,-6.2302 33.99201,1.25802 m 97.80437,-0.28516 -5.39169,15.76702 m -25.27651,-15.13212 6.00341,9.56433 m -158.99946,-7.90546 -6.38022,8.61324 m -72.78314,-6.35753 -24.37076,8.03151 m 239.79535,-9.5252 -4.794,13.80943 M 33.061674,211.27025 32.426193,225.69947 m 443.777077,-13.58624 0.67652,9.77181 m -374.21222,-13.37988 2.76217,0.55704 m -2.76217,-0.55704 -17.15268,16.47089 m 19.91485,-15.91385 12.70494,19.66299 m 192.76141,-22.29032 -21.44632,25.34385 m 21.44632,-25.34385 7.07227,1.24288 m -183.81714,8.03046 -16.01654,13.01698 m 16.01654,-13.01698 7.37923,0.10298 m 46.15622,-1.9917 0.21742,0.0664 m 0,0 6.96123,5.68316 m 123.10304,-11.89127 0.74954,0.6194 m -309.455305,8.50439 3.054591,16.47521 m 306.400714,-24.97961 2.19989,29.5052 m -179.38734,-21.99116 9.36125,10.80967 m 220.47575,-12.3774 -18.24851,-4.99318 m 0.0727,-1.23353 -0.0727,1.23353 m -103.93248,10.94616 11.28335,-0.0194 m -11.28335,0.0194 -12.51314,14.28397 m 134.69413,-20.23695 4.93377,8.09239 m -115.83141,-2.15883 6.66821,15.13305 m 109.1632,-12.97422 22.01604,3.79938 m -365.891067,-0.43576 24.095805,4.57944 m 296.596942,-21.02863 -0.40903,0.30489 m 73.13958,9.91407 -14.82518,14.90081 m -58.3144,-24.81488 -4.51468,19.7398 m 77.65426,-9.82573 15.51431,6.94798 m -240.80057,-8.02479 13.36982,13.19413 m -13.36982,-13.19413 -5.6979,1.17659 m 282.01446,2.31602 17.01617,7.39778 m -17.01617,-7.39778 -12.94502,12.51955 m -390.200927,-14.83078 -12.40406,2.08752 m 433.722407,6.694 15.5903,2.69322 m -315.77717,-11.47956 -4.0948,11.2752 M 73.733843,219.57384 85.51489,224.97605 m 77.80102,-3.12505 -2.66599,3.73501 M 32.426193,225.69947 27.8044,232.0341 m 348.49682,-9.69825 -1.88681,20.83363 m 23.90285,-17.03425 3.51295,7.39087 m -340.500427,-11.86474 -4.807785,8.61755 m 157.411052,1.30765 14.79523,-2.88934 m -14.79523,2.88934 -5.08998,15.36548 m 286.20912,-18.59668 -1.15623,0.92746 m -265.16768,-0.5856 7.94504,5.78319 m -76.0234,-8.8944 16.07136,12.78714 m -58.5866,-9.64796 -0.12199,1.55444 m 42.63723,-4.69362 -6.59227,1.76255 m -68.54276,-2.37251 4.078587,12.40159 m 404.302483,-8.09482 -1.32861,17.65091 m -144.37212,-17.63876 -17.74843,9.17298 m -139.67628,-7.62373 -14.04924,7.52893 m 14.04924,-7.52893 9.1302,14.31872 M 27.8044,232.0341 12.317186,233.27676 m 138.574514,-6.6559 -18.00586,15.84164 m 215.30939,-13.16753 4.78539,7.83743 m -234.96793,-6.85277 14.87315,12.18287 m -14.87315,-12.18287 -13.2864,10.51766 m 340.3963,-15.76026 16.89918,9.46379 m -172.80254,-0.60551 31.69856,3.90704 m -170.02609,-11.18149 3.16595,0.7277 M 27.8044,232.0341 38.730115,249.11365 m 406.392475,-24.07662 -3.75879,1.38019 m -287.30615,0.93134 2.63713,27.78737 m 254.32953,-20.76588 -9.1941,-0.84395 m 39.53359,-7.10888 -7.62241,17.88206 m -22.71708,-9.92923 14.37962,16.53525 M 56.521998,230.27891 55.40949,241.84779 m 211.72853,-6.53772 20.68235,0.54941 m 114.00984,-2.33338 -8.75581,15.45658 M 10.724062,235.30793 -4.1545568,237.16599 m 357.1351768,-0.0336 14.89976,8.53443 m -14.89976,-8.53443 -8.88,18.23292 m -76.9626,-20.05519 -10.56366,13.00421 m -244.257174,-15.03752 -1.593124,2.03117 m 278.725708,-3.52921 -0.23054,2.11659 m 174.71554,0.50928 18.36721,17.19197 m -18.36721,-17.19197 -1.913,0.0962 m -451.297708,0.80711 4.775624,26.27461 m 446.522084,-27.08172 -7.80191,21.48277 m -277.49858,-17.61044 -0.45179,8.97748 m 60.40383,-12.87022 1.1439,4.81647 m 92.62958,-0.82893 13.65382,16.89736 m -13.65382,-16.89736 -9.13765,-0.10377 m -32.08992,-4.46887 -1.39886,1.96417 m -183.09408,4.93781 -15.132813,-3.41965 m 198.226893,-1.51816 1.56351,17.91044 M 104.72629,240.7973 110.42698,254.346 M 89.593477,237.37767 82.958689,247.7107 m 237.959101,-9.90832 0.39136,0.56183 m -83.49193,0.9327 18.75714,9.0174 m -56.67364,-3.15134 -14.85452,13.05786 m 14.85452,-13.05786 8.94235,1.7891 m 112.46608,-8.58786 -4.70005,18.77181 m -183.72326,-14.67352 0.0554,6.22545 m 300.80021,-4.38867 20.47847,11.68431 m -216.40264,-16.68671 -9.70761,12.94642 m -172.7001,-10.39551 18.53214,10.95628 m -18.53214,-10.95628 -11.42283,8.39312 m 132.28283,-2.89028 -19.57471,7.7853 m 335.87257,-8.2022 18.07514,1.3726 m -136.22808,-5.13685 -6.53403,2.49734 m 6.53403,-2.49734 13.31834,7.0337 m 46.00864,-5.9039 -7.62305,6.36011 m -249.84885,-3.30876 8.77671,10.87017 m 182.83418,-12.55398 -11.57576,23.32165 m -147.46155,-22.03643 6.72261,8.49455 m -82.6245,-6.75864 21.32072,10.54368 m -21.32072,-10.54368 -7.89356,8.77201 m -42.088932,-9.74929 15.524524,18.65937 m -15.524524,-18.65937 -9.017058,5.0934 m 418.62572,-5.87034 -2.79615,2.75302 m -451.041115,-0.5731 -23.230429,12.46889 m 23.230429,-12.46889 5.256545,1.12726 m 212.5877,-1.92663 1.13387,4.1236 m 135.36617,-3.4552 10.77423,8.3102 m 19.97321,-4.37532 -19.97321,4.37532 m -10.77423,-8.3102 -5.34165,1.2205 m -130.02452,2.2347 25.39604,8.61088 m 143.01407,-10.38937 23.20812,20.80014 M 344.3646,257.01682 324.1623,261.3461 m 63.57045,-11.14292 -6.4529,21.60333 m -153.17024,-19.56321 15.24108,19.70668 m -15.24108,-19.70668 -11.55645,3.52363 m 127.54746,-0.40162 0.26398,1.65151 m 145.4066,-7.33007 -7.46922,1.90981 m -438.31532,-1.35565 3.639159,15.55849 m 442.145381,-16.11265 11.40074,21.93786 m -390.74496,-17.27862 11.58453,4.1089 m -11.58453,-4.1089 -11.943768,12.02405 m 327.635128,-15.71065 -0.71441,0.24591 m 0,0 -1.58209,2.01226 m 53.59281,5.92465 -22.13394,1.68929 m 27.02127,-8.93494 -4.88733,7.24565 m -23.19479,-2.85862 1.06085,4.54791 m -197.57248,-8.09362 -6.09619,16.47906 m 37.77184,-15.14702 22.35387,6.19974 m -237.79612,-7.16559 -1.011309,5.4026 m 350.891519,-5.28911 -0.2988,13.73282 m -79.15844,-9.63356 11.58757,11.87577 m -199.25739,-13.75666 -2.43288,4.0957 m 249.58673,-1.93875 -0.0279,14.18287 m -188.25498,-16.02916 -20.74698,15.89652 m 94.56518,-17.57319 -6.27961,7.27884 m -158.05665,-3.5888 14.26648,16.90858 m -14.26648,-16.90858 -3.03611,0.99493 m 93.55417,-3.0083 0.98748,0.32034 m 0,0 3.40851,15.50828 m -97.95016,-12.82032 -4.87897,19.21791 M 72.930321,258.20667 90.283894,281.45232 M 72.930321,258.20667 62.494329,269.48284 M 185.0462,258.2208 l 0.73723,9.6537 m 291.63122,-9.03229 0.79172,13.37511 M 324.1623,261.3461 l -7.5532,-4.21011 m 7.5532,4.21011 8.77577,16.96052 m -16.32897,-21.17063 -4.87135,2.83367 m 143.54296,0.56184 -4.74045,10.32622 m -296.27836,-11.62609 1.01232,9.31755 m 268.24882,-1.8988 -13.92223,7.6566 m -97.86306,-14.33732 -2.89801,14.21631 m 114.6833,-7.53559 7.74872,10.84448 M 47.625819,265.7994 l 14.86851,3.68344 m 220.609941,-8.43408 -0.97922,8.64306 m -183.641838,-3.32178 -1.246276,8.3648 m -49.611117,-8.93544 -6.453052,9.06979 m 178.788903,-3.59398 19.403,6.01313 m 42.76038,-7.59652 -22.69237,5.15155 m -243.932994,-13.26083 -1.268388,2.74705 m 205.730372,6.94562 -4.43842,6.94537 m -153.028921,-8.73774 4.622001,17.86885 m 113.83166,-16.27207 -24.91737,-1.81302 m 247.79004,2.20915 5.78015,2.83123 m -5.78015,-2.83123 -10.86222,6.31299 m 85.24793,-5.57142 -12.92663,6.17739 m 35.8922,-6.7701 9.47055,-0.39392 m -101.04168,3.07629 5.95468,13.04471 m 62.65088,-15.13437 11.62317,10.29547 M 14.231298,264.32959 25.6133,274.17535 m 113.7008,0.19319 15.96012,-5.81936 m -141.042922,-4.21959 -6.2953695,2.67209 m 207.5873215,11.2189 -17.15535,-1.54225 m 53.24414,-7.76139 7.82064,5.92643 m 241.73926,-3.21876 -11.3424,10.88818 m -238.2175,-13.59585 -8.26135,3.03304 m 112.60148,-3.05739 -23.0141,9.41403 m -307.32477,-4.13127 15.559467,0.69384 m 240.952283,-5.17737 2.68397,6.70657 m 164.51744,-4.93886 -18.0547,6.03533 m -245.48833,-9.62036 9.03527,3.46861 M 7.9359285,267.00168 -4.1545568,267.25916 m 189.9379868,0.61534 -4.83544,3.20512 m 269.59227,-0.2219 14.73948,7.53699 m -348.1472,-0.72191 -19.895604,-2.93796 m 211.602804,-0.54887 16.87578,13.16572 m 55.56433,-15.54518 11.67859,5.98223 m -89.41095,0.61022 -18.73847,-2.00057 M 7.9359285,267.00168 9.6976999,287.35169 m 299.1420401,-13.16572 -5.29225,4.21299 m 77.73236,-6.59245 -17.31744,6.11814 m -224.64831,-3.55611 -9.11833,12.98315 m 25.07845,-18.80251 0.7564,0.71742 m 38.78808,2.07651 3.5492,5.33522 m 61.06478,-1.83496 3.34637,12.50832 m -81.83106,-16.27207 -3.03254,16.27207 m -21.88483,-18.08509 2.04276,18.08509 m 57.44987,-9.13111 2.85484,9.13111 m 232.16217,-16.49397 -1.09279,0.60778 m -206.09678,0.48448 -3.98602,5.33836 M 25.6133,274.17535 24.896992,287.35169 m 16.275775,-12.4825 4.620425,12.4825 m 403.533268,-15.89216 0.12101,0.006 m 0,0 -0.25801,15.88619 m 16.09028,-8.95698 1.19486,8.95698 m -110.52243,-18.4591 0.35245,0.0959 m 0,0 7.65779,8.93619 m -60.41492,0.4743 0.10586,8.95273 m 127.61841,-9.85675 -4.31865,9.85683 m -309.82057,-9.67889 7.45827,9.67889 m 73.77709,-10.67336 0.41479,10.67336 m 194.17575,-9.56294 1.62727,9.56294 m -297.348774,-12.61685 -6.953042,6.71749 m 242.654176,-3.14571 -4.43522,9.04507 m -43.69383,-10.95347 -2.75094,10.9533 m -42.69341,-10.06335 -1.7609,10.06335 m 252.22577,-4.8389 -0.0806,4.8389 m -125.78657,-9.42704 -0.3471,9.42704 m -273.331416,-5.89937 -2.356232,5.89937 m 194.130418,0 h 21.59527 m 59.96196,0 h 30.9704 m -90.93236,0 h 22.06217 m -237.787858,0 H 124.5908 m 324.59865,0 H 466.4746 M -4.1545568,267.25916 v 20.09253 m 0,0 H 9.6976999 m 168.2177501,0 h 20.86724 m 228.17042,0 h 22.23635 m -424.292468,0 h 20.8962 m 282.709658,0 h 35.11246 m -126.01154,0 h 25.17528 m -63.99636,0 h 19.5954 m -88.18232,0 h 27.87761 m -148.3756801,0 H 24.896992 m 464.851978,0 h 20.89352 m 0,0 v -16.121 m -44.16789,16.121 h 23.27437 m -95.16326,0 h 20.96978 m -257.48211,0 h 19.84207 m 84.8636,0 h 19.27903 m -63.67999,0 h 19.22568 m -191.810578,0 H 67.11633 m 348.43916,0 h 11.39762 m -101.23759,0 h 2.78733 m -261.38652,0 h 20.811332 m 36.663148,0 h 5.60496 m 380.44672,-16.121 V 248.30633 M -4.1545568,237.16599 v 30.09317 M 510.64249,248.30633 V 231.04858 M -4.1545568,214.52735 v 22.63864 M 510.64249,231.04858 V 203.08216 M -4.1545568,194.17875 v 20.3486 M 510.64249,203.08216 v -7.5416 M -4.1545568,167.4708 v 26.70795 m 514.7970468,1.36181 v -26.27768 m 0,0 V 146.64907 M -4.1545568,143.21624 V 167.4708 M 510.64249,146.64907 V 120.21206 M -4.1545568,130.33624 v 12.88 m 0,-37.40515 v 24.52515 M 510.64249,120.21206 V 91.847737 M -4.1545568,92.214621 V 105.81109 M 510.64249,91.847737 V 63.431732 M -4.1545568,61.045477 V 92.214621 M 510.64249,63.431732 V 35.360053 M -4.1545568,30.705647 v 30.33983 M 510.64249,35.360053 V 8.1015903 M -4.1545568,5.1638113 V 30.705647 M 330.62883,-2.2216475 h -21.18824 m -122.01032,0 H 172.9404 m -73.217064,0 h -2.646868 m 255.152422,0 h -21.60006 m -206.94145,0 H 99.723336 m 134.120184,0 h -18.44973 m 207.22758,0 h -33.2871 m -345.27182,0 H 21.098307 m 234.281463,0 h -21.53625 m -18.44973,0 h -27.96352 m 122.01032,0 h -30.33027 m 0,0 H 255.37977 M 510.64249,8.1015903 V -2.2216475 m 0,0 h -20.46792 m -341.35756,0 h -25.12963 m 328.60177,0 h -29.66778 m -401.523063,0 H -4.1545568 m 0,0 V 5.1638113 M 490.17457,-2.2216475 h -16.6179 m -84.2224,0 h -37.10538 m -281.879712,0 H 44.06245 m 53.014018,0 h -26.72729 m 403.207492,0 h -21.26752 m -279.34875,0 h -24.12339"
       stroke="#000000"
       stroke-width="0.536247"
       style="stroke:#000000;stroke-opacity:0.5" />
  </g>
</svg>
