<?xml version="1.0" encoding="UTF-8" standalone="no"?>
<svg
   id="main_svg"
   width="504"
   height="300"
   version="1.1"
   sodipodi:docname="sequence-4.svg"
   inkscape:version="1.3.2 (091e20ef0f, 2023-11-25, custom)"
   xmlns:inkscape="http://www.inkscape.org/namespaces/inkscape"
   xmlns:sodipodi="http://sodipodi.sourceforge.net/DTD/sodipodi-0.dtd"
   xmlns="http://www.w3.org/2000/svg"
   xmlns:svg="http://www.w3.org/2000/svg">
  <defs
     id="defs15" />
  <sodipodi:namedview
     id="namedview15"
     pagecolor="#ffffff"
     bordercolor="#000000"
     borderopacity="0.25"
     inkscape:showpageshadow="2"
     inkscape:pageopacity="0.0"
     inkscape:pagecheckerboard="0"
     inkscape:deskcolor="#d1d1d1"
     showborder="false"
     inkscape:zoom="1.9942948"
     inkscape:cx="275.78671"
     inkscape:cy="181.5178"
     inkscape:window-width="1920"
     inkscape:window-height="1030"
     inkscape:window-x="0"
     inkscape:window-y="50"
     inkscape:window-maximized="1"
     inkscape:current-layer="main_svg" />
  <g
     id="svg_g_bezier_cells"
     style="display:none">
    <path
       d="m 111.00904,0 64.86003,90.477025 8.67475,10.240115 11.79347,10.94557 12.71217,8.23806 4.87396,2.28778 24.4859,5.94657 9.09735,0.545 19.24274,-1.24721 20.88226,-4.43256 4.33953,-1.78307 9.87826,-5.92696 16.62438,-13.76865 7.94985,-8.739207 L 392.30473,0 Z"
       fill="#221155"
       fill-opacity="0.2"
       id="path1" />
    <path
       d="M 0,203.53571 175.86907,90.477025 111.00904,0 H 0 Z"
       fill="#221155"
       fill-opacity="0.2"
       id="path2" />
    <path
       d="M 326.42369,92.782463 504,211.16667 V 0 H 392.30473 Z"
       fill="#221155"
       fill-opacity="0.2"
       id="path3" />
    <path
       d="M 0,239.125 184.54382,100.71714 175.86907,90.477025 0,203.53571 Z"
       fill="#221155"
       fill-opacity="0.2"
       id="path4" />
    <path
       d="M 318.47384,101.52167 504,270.18182 V 211.16667 L 326.42369,92.782463 Z"
       fill="#221155"
       fill-opacity="0.2"
       id="path5" />
    <path
       d="M 8,300 196.33729,111.66271 184.54382,100.71714 0,239.125 V 300 Z"
       fill="#221155"
       fill-opacity="0.2"
       id="path6" />
    <path
       d="M 301.84946,115.29032 471.16667,300 H 504 V 270.18182 L 318.47384,101.52167 Z"
       fill="#221155"
       fill-opacity="0.2"
       id="path7" />
    <path
       d="M 81.479167,300 209.04946,119.90077 196.33729,111.66271 8,300 Z"
       fill="#221155"
       fill-opacity="0.2"
       id="path8" />
    <path
       d="M 291.9712,121.21728 400.51786,300 h 70.64881 L 301.84946,115.29032 Z"
       fill="#221155"
       fill-opacity="0.2"
       id="path9" />
    <path
       d="m 153.20732,300 60.7161,-177.81145 -4.87396,-2.28778 L 81.479167,300 Z"
       fill="#221155"
       fill-opacity="0.2"
       id="path10" />
    <path
       d="M 287.63167,123.00035 334.21053,300 h 66.30733 L 291.9712,121.21728 Z"
       fill="#221155"
       fill-opacity="0.2"
       id="path11" />
    <path
       d="M 206.75,300 238.40932,128.13512 213.92342,122.18855 153.20732,300 Z"
       fill="#221155"
       fill-opacity="0.2"
       id="path12" />
    <path
       d="M 266.74941,127.43291 289.01613,300 h 45.1944 L 287.63167,123.00035 Z"
       fill="#221155"
       fill-opacity="0.2"
       id="path13" />
    <path
       d="M 247.50667,128.68012 253.85185,300 h 35.16428 L 266.74941,127.43291 Z"
       fill="#221155"
       fill-opacity="0.2"
       id="path14" />
    <path
       d="m 253.85185,300 -6.34518,-171.31988 -9.09735,-0.545 L 206.75,300 Z"
       fill="#221155"
       fill-opacity="0.2"
       id="path15" />
  </g>
  <g
     id="svg_g_edges"
     transform="matrix(0.99605274,0,0,0.99335543,0.99470976,0.99469654)">
    <path
       id="svg_path_edges"
       d="M 175.86907,90.477025 111.00904,0 M 326.42369,92.782463 392.30473,0 M 175.86907,90.477025 0,203.53571 M 326.42369,92.782463 504,211.16667 M 184.54382,100.71714 0,239.125 M 318.47384,101.52167 504,270.18182 M 175.86907,90.477025 l 8.67475,10.240115 m 141.87987,-7.934677 -7.94985,8.739207 M 196.33729,111.66271 8,300 M 301.84946,115.29032 471.16667,300 m -286.62285,-199.28286 11.79347,10.94557 m 122.13655,-10.14104 -16.62438,13.76865 m -92.8,4.61045 L 81.479167,300 m 114.858123,-188.33729 12.71217,8.23806 M 291.9712,121.21728 400.51786,300 m -98.6684,-184.70968 -9.87826,5.92696 m -82.92174,-1.31651 4.87396,2.28778 m 0,0 L 153.20732,300 m 138.76388,-178.78272 -4.33953,1.78307 m -73.70825,-0.8118 24.4859,5.94657 M 287.63167,123.00035 334.21053,300 m -46.57886,-176.99965 -20.88226,4.43256 m 0,0 -19.24274,1.24721 M 266.74941,127.43291 289.01613,300 M 238.40932,128.13512 206.75,300 m 31.65932,-171.86488 9.09735,0.545 m 0,0 L 253.85185,300 M 206.75,300 h 47.10185 m 0,0 h 35.16428 m 0,0 h 45.1944 m -181.00321,0 H 206.75 m 127.46053,0 h 66.30733 m -319.038693,0 h 71.728153 m 247.31054,0 h 70.64881 M 8,300 h 73.479167 m 389.687503,0 H 504 m 0,0 V 270.18182 M 0,239.125 V 300 m 0,0 H 8 M 504,270.18182 V 211.16667 M 0,203.53571 V 239.125 M 504,211.16667 V 0 m 0,0 H 392.30473 M 111.00904,0 H 0 M 0,0 V 203.53571 M 392.30473,0 H 111.00904"
       stroke="#000000"
       stroke-width="2" />
  </g>
  <g
     id="svg_g_seeds"
     transform="matrix(0.99605274,0,0,0.99335543,0.99470976,0.99469654)">
    <circle
       id="c_1"
       cx="420"
       cy="140"
       r="3"
       stroke="#000000"
       stroke-width="2"
       fill="#1F7BFD"
       style="fill:none" />
    <circle
       id="c_2"
       cx="85"
       cy="139"
       r="3"
       stroke="#000000"
       stroke-width="2"
       fill="#1F7BFD"
       style="fill:none" />
    <circle
       id="c_3"
       cx="94"
       cy="153"
       r="3"
       stroke="#000000"
       stroke-width="2"
       fill="#1F7BFD"
       style="fill:none" />
    <circle
       id="c_4"
       cx="109"
       cy="173"
       r="3"
       stroke="#000000"
       stroke-width="2"
       fill="#1F7BFD"
       style="fill:none" />
    <circle
       id="c_5"
       cx="135"
       cy="199"
       r="3"
       stroke="#000000"
       stroke-width="2"
       fill="#1F7BFD"
       style="fill:none" />
    <circle
       id="c_6"
       cx="159"
       cy="216"
       r="3"
       stroke="#000000"
       stroke-width="2"
       fill="#1F7BFD"
       style="fill:none" />
    <circle
       id="c_7"
       cx="200"
       cy="230"
       r="3"
       stroke="#000000"
       stroke-width="2"
       fill="#1F7BFD"
       style="fill:none" />
    <circle
       id="c_8"
       cx="238"
       cy="237"
       r="3"
       stroke="#000000"
       stroke-width="2"
       fill="#1F7BFD"
       style="fill:none" />
    <circle
       id="c_9"
       cx="265"
       cy="236"
       r="3"
       stroke="#000000"
       stroke-width="2"
       fill="#1F7BFD"
       style="fill:none" />
    <circle
       id="c_10"
       cx="296"
       cy="232"
       r="3"
       stroke="#000000"
       stroke-width="2"
       fill="#1F7BFD"
       style="fill:none" />
    <circle
       id="c_11"
       cx="334"
       cy="222"
       r="3"
       stroke="#000000"
       stroke-width="2"
       fill="#1F7BFD"
       style="fill:none" />
    <circle
       id="c_12"
       cx="362"
       cy="205"
       r="3"
       stroke="#000000"
       stroke-width="2"
       fill="#1F7BFD"
       style="fill:none" />
    <circle
       id="c_13"
       cx="386"
       cy="183"
       r="3"
       stroke="#000000"
       stroke-width="2"
       fill="#1F7BFD"
       style="fill:none" />
    <circle
       id="c_14"
       cx="406"
       cy="161"
       r="3"
       stroke="#000000"
       stroke-width="2"
       fill="#1F7BFD"
       style="fill:none" />
    <circle
       id="c_15"
       cx="251"
       cy="20"
       r="3"
       stroke="#000000"
       stroke-width="2"
       fill="#1F7BFD"
       style="fill:none" />
  </g>
</svg>
