<?xml version="1.0" encoding="UTF-8" standalone="no"?>
<svg
   id="main_svg"
   width="504"
   height="300"
   version="1.1"
   sodipodi:docname="sequence-8.svg"
   inkscape:version="1.3.2 (091e20ef0f, 2023-11-25, custom)"
   xml:space="preserve"
   xmlns:inkscape="http://www.inkscape.org/namespaces/inkscape"
   xmlns:sodipodi="http://sodipodi.sourceforge.net/DTD/sodipodi-0.dtd"
   xmlns:xlink="http://www.w3.org/1999/xlink"
   xmlns="http://www.w3.org/2000/svg"
   xmlns:svg="http://www.w3.org/2000/svg"><defs
     id="defs15" /><sodipodi:namedview
     id="namedview15"
     pagecolor="#ffffff"
     bordercolor="#000000"
     borderopacity="0.25"
     inkscape:showpageshadow="2"
     inkscape:pageopacity="0.0"
     inkscape:pagecheckerboard="0"
     inkscape:deskcolor="#d1d1d1"
     showborder="false"
     inkscape:zoom="1.5815055"
     inkscape:cx="227.63121"
     inkscape:cy="113.8156"
     inkscape:window-width="1920"
     inkscape:window-height="1030"
     inkscape:window-x="0"
     inkscape:window-y="50"
     inkscape:window-maximized="1"
     inkscape:current-layer="main_svg" /><g
     id="svg_g_bezier_cells"
     style="display:none"><path
       d="m 111.00904,0 64.86003,90.477025 8.67475,10.240115 11.79347,10.94557 12.71217,8.23806 4.87396,2.28778 24.4859,5.94657 9.09735,0.545 19.24274,-1.24721 20.88226,-4.43256 4.33953,-1.78307 9.87826,-5.92696 16.62438,-13.76865 7.94985,-8.739207 L 392.30473,0 Z"
       fill="#221155"
       fill-opacity="0.2"
       id="path1" /><path
       d="M 0,203.53571 175.86907,90.477025 111.00904,0 H 0 Z"
       fill="#221155"
       fill-opacity="0.2"
       id="path2" /><path
       d="M 326.42369,92.782463 504,211.16667 V 0 H 392.30473 Z"
       fill="#221155"
       fill-opacity="0.2"
       id="path3" /><path
       d="M 0,239.125 184.54382,100.71714 175.86907,90.477025 0,203.53571 Z"
       fill="#221155"
       fill-opacity="0.2"
       id="path4" /><path
       d="M 318.47384,101.52167 504,270.18182 V 211.16667 L 326.42369,92.782463 Z"
       fill="#221155"
       fill-opacity="0.2"
       id="path5" /><path
       d="M 8,300 196.33729,111.66271 184.54382,100.71714 0,239.125 V 300 Z"
       fill="#221155"
       fill-opacity="0.2"
       id="path6" /><path
       d="M 301.84946,115.29032 471.16667,300 H 504 V 270.18182 L 318.47384,101.52167 Z"
       fill="#221155"
       fill-opacity="0.2"
       id="path7" /><path
       d="M 81.479167,300 209.04946,119.90077 196.33729,111.66271 8,300 Z"
       fill="#221155"
       fill-opacity="0.2"
       id="path8" /><path
       d="M 291.9712,121.21728 400.51786,300 h 70.64881 L 301.84946,115.29032 Z"
       fill="#221155"
       fill-opacity="0.2"
       id="path9" /><path
       d="m 153.20732,300 60.7161,-177.81145 -4.87396,-2.28778 L 81.479167,300 Z"
       fill="#221155"
       fill-opacity="0.2"
       id="path10" /><path
       d="M 287.63167,123.00035 334.21053,300 h 66.30733 L 291.9712,121.21728 Z"
       fill="#221155"
       fill-opacity="0.2"
       id="path11" /><path
       d="M 206.75,300 238.40932,128.13512 213.92342,122.18855 153.20732,300 Z"
       fill="#221155"
       fill-opacity="0.2"
       id="path12" /><path
       d="M 266.74941,127.43291 289.01613,300 h 45.1944 L 287.63167,123.00035 Z"
       fill="#221155"
       fill-opacity="0.2"
       id="path13" /><path
       d="M 247.50667,128.68012 253.85185,300 h 35.16428 L 266.74941,127.43291 Z"
       fill="#221155"
       fill-opacity="0.2"
       id="path14" /><path
       d="m 253.85185,300 -6.34518,-171.31988 -9.09735,-0.545 L 206.75,300 Z"
       fill="#221155"
       fill-opacity="0.2"
       id="path15" /></g><g
     id="svg_g_edges"
     style="display:none"><path
       id="svg_path_edges"
       d="M 175.86907,90.477025 111.00904,0 M 326.42369,92.782463 392.30473,0 M 175.86907,90.477025 0,203.53571 M 326.42369,92.782463 504,211.16667 M 184.54382,100.71714 0,239.125 M 318.47384,101.52167 504,270.18182 M 175.86907,90.477025 l 8.67475,10.240115 m 141.87987,-7.934677 -7.94985,8.739207 M 196.33729,111.66271 8,300 M 301.84946,115.29032 471.16667,300 m -286.62285,-199.28286 11.79347,10.94557 m 122.13655,-10.14104 -16.62438,13.76865 m -92.8,4.61045 L 81.479167,300 m 114.858123,-188.33729 12.71217,8.23806 M 291.9712,121.21728 400.51786,300 m -98.6684,-184.70968 -9.87826,5.92696 m -82.92174,-1.31651 4.87396,2.28778 m 0,0 L 153.20732,300 m 138.76388,-178.78272 -4.33953,1.78307 m -73.70825,-0.8118 24.4859,5.94657 M 287.63167,123.00035 334.21053,300 m -46.57886,-176.99965 -20.88226,4.43256 m 0,0 -19.24274,1.24721 M 266.74941,127.43291 289.01613,300 M 238.40932,128.13512 206.75,300 m 31.65932,-171.86488 9.09735,0.545 m 0,0 L 253.85185,300 M 206.75,300 h 47.10185 m 0,0 h 35.16428 m 0,0 h 45.1944 m -181.00321,0 H 206.75 m 127.46053,0 h 66.30733 m -319.038693,0 h 71.728153 m 247.31054,0 h 70.64881 M 8,300 h 73.479167 m 389.687503,0 H 504 m 0,0 V 270.18182 M 0,239.125 V 300 m 0,0 H 8 M 504,270.18182 V 211.16667 M 0,203.53571 V 239.125 M 504,211.16667 V 0 m 0,0 H 392.30473 M 111.00904,0 H 0 M 0,0 V 203.53571 M 392.30473,0 H 111.00904"
       stroke="#000000"
       stroke-width="2" /></g><g
     id="svg_g_seeds"
     style="display:none"><circle
       id="c_1"
       cx="420"
       cy="140"
       r="3"
       stroke="#000000"
       stroke-width="2"
       fill="#1F7BFD"
       style="fill:none" /><circle
       id="c_2"
       cx="85"
       cy="139"
       r="3"
       stroke="#000000"
       stroke-width="2"
       fill="#1F7BFD"
       style="fill:none" /><circle
       id="c_3"
       cx="94"
       cy="153"
       r="3"
       stroke="#000000"
       stroke-width="2"
       fill="#1F7BFD"
       style="fill:none" /><circle
       id="c_4"
       cx="109"
       cy="173"
       r="3"
       stroke="#000000"
       stroke-width="2"
       fill="#1F7BFD"
       style="fill:none" /><circle
       id="c_5"
       cx="135"
       cy="199"
       r="3"
       stroke="#000000"
       stroke-width="2"
       fill="#1F7BFD"
       style="fill:none" /><circle
       id="c_6"
       cx="159"
       cy="216"
       r="3"
       stroke="#000000"
       stroke-width="2"
       fill="#1F7BFD"
       style="fill:none" /><circle
       id="c_7"
       cx="200"
       cy="230"
       r="3"
       stroke="#000000"
       stroke-width="2"
       fill="#1F7BFD"
       style="fill:none" /><circle
       id="c_8"
       cx="238"
       cy="237"
       r="3"
       stroke="#000000"
       stroke-width="2"
       fill="#1F7BFD"
       style="fill:none" /><circle
       id="c_9"
       cx="265"
       cy="236"
       r="3"
       stroke="#000000"
       stroke-width="2"
       fill="#1F7BFD"
       style="fill:none" /><circle
       id="c_10"
       cx="296"
       cy="232"
       r="3"
       stroke="#000000"
       stroke-width="2"
       fill="#1F7BFD"
       style="fill:none" /><circle
       id="c_11"
       cx="334"
       cy="222"
       r="3"
       stroke="#000000"
       stroke-width="2"
       fill="#1F7BFD"
       style="fill:none" /><circle
       id="c_12"
       cx="362"
       cy="205"
       r="3"
       stroke="#000000"
       stroke-width="2"
       fill="#1F7BFD"
       style="fill:none" /><circle
       id="c_13"
       cx="386"
       cy="183"
       r="3"
       stroke="#000000"
       stroke-width="2"
       fill="#1F7BFD"
       style="fill:none" /><circle
       id="c_14"
       cx="406"
       cy="161"
       r="3"
       stroke="#000000"
       stroke-width="2"
       fill="#1F7BFD"
       style="fill:none" /><circle
       id="c_15"
       cx="251"
       cy="20"
       r="3"
       stroke="#000000"
       stroke-width="2"
       fill="#1F7BFD"
       style="fill:none" /></g><g
     id="g15"
     transform="translate(1,1)"
     style="display:none"><g
       id="svg_g_bezier_cells-2"
       style="display:none"><path
         d="m 111.00904,0 17.20482,24 H 375.26331 L 392.30473,0 Z"
         fill="#221155"
         fill-opacity="0.2"
         id="path1-4" /><path
         d="m 128.21386,24 45.41464,67.917394 8.46771,10.635446 11.79752,11.55343 13.00917,8.82493 5.79808,2.83736 24.98239,6.30744 9.97205,0.62027 19.60288,-1.31942 21.33899,-4.70714 5.30604,-2.2701 10.34779,-6.4893 16.47046,-14.34524 7.96036,-9.277108 L 375.26331,24 Z"
         fill="#221155"
         fill-opacity="0.2"
         id="path2-7" /><path
         d="M 0,203.53571 173.6285,91.917394 128.21386,24 111.00904,0 H 0 Z"
         fill="#221155"
         fill-opacity="0.2"
         id="path3-9" /><path
         d="M 328.68194,94.287962 504,211.16667 V 0 H 392.30473 l -17.04142,24 z"
         fill="#221155"
         fill-opacity="0.2"
         id="path4-3" /><path
         d="M 0,239.125 182.09621,102.55284 173.6285,91.917394 0,203.53571 Z"
         fill="#221155"
         fill-opacity="0.2"
         id="path5-9" /><path
         d="M 320.72158,103.56507 504,270.18182 V 211.16667 L 328.68194,94.287962 Z"
         fill="#221155"
         fill-opacity="0.2"
         id="path6-2" /><path
         d="M 8,300 193.89373,114.10627 182.09621,102.55284 0,239.125 V 300 Z"
         fill="#221155"
         fill-opacity="0.2"
         id="path7-8" /><path
         d="M 304.25112,117.91031 471.16667,300 H 504 V 270.18182 L 320.72158,103.56507 Z"
         fill="#221155"
         fill-opacity="0.2"
         id="path8-3" /><path
         d="M 81.479167,300 206.9029,122.9312 193.89373,114.10627 8,300 Z"
         fill="#221155"
         fill-opacity="0.2"
         id="path9-0" /><path
         d="M 293.90333,124.39961 400.51786,300 h 70.64881 L 304.25112,117.91031 Z"
         fill="#221155"
         fill-opacity="0.2"
         id="path10-1" /><path
         d="M 153.20732,300 212.70098,125.76856 206.9029,122.9312 81.479167,300 Z"
         fill="#221155"
         fill-opacity="0.2"
         id="path11-7" /><path
         d="M 288.59729,126.66971 334.21053,300 h 66.30733 L 293.90333,124.39961 Z"
         fill="#221155"
         fill-opacity="0.2"
         id="path12-8" /><path
         d="M 206.75,300 237.68337,132.076 212.70098,125.76856 153.20732,300 Z"
         fill="#221155"
         fill-opacity="0.2"
         id="path13-9" /><path
         d="M 267.2583,131.37685 289.01613,300 h 45.1944 L 288.59729,126.66971 Z"
         fill="#221155"
         fill-opacity="0.2"
         id="path14-1" /><path
         d="M 247.65542,132.69627 253.85185,300 h 35.16428 L 267.2583,131.37685 Z"
         fill="#221155"
         fill-opacity="0.2"
         id="path15-5" /><path
         d="M 253.85185,300 247.65542,132.69627 237.68337,132.076 206.75,300 Z"
         fill="#221155"
         fill-opacity="0.2"
         id="path16" /></g><g
       id="svg_g_edges-4"><path
         id="svg_path_edges-9"
         d="M 128.21386,24 H 375.26331 M 128.21386,24 111.00904,0 M 375.26331,24 392.30473,0 M 128.21386,24 173.6285,91.917394 M 375.26331,24 328.68194,94.287962 M 173.6285,91.917394 0,203.53571 M 328.68194,94.287962 504,211.16667 M 182.09621,102.55284 0,239.125 M 320.72158,103.56507 504,270.18182 M 173.6285,91.917394 l 8.46771,10.635446 m 146.58573,-8.264878 -7.96036,9.277108 M 193.89373,114.10627 8,300 m 174.09621,-197.44716 11.79752,11.55343 M 304.25112,117.91031 471.16667,300 M 320.72158,103.56507 304.25112,117.91031 M 206.9029,122.9312 81.479167,300 M 193.89373,114.10627 206.9029,122.9312 m 87.00043,1.46841 L 400.51786,300 m -96.26674,-182.08969 -10.34779,6.4893 m -87.00043,-1.46841 5.79808,2.83736 m 81.20235,-1.36895 -5.30604,2.2701 M 212.70098,125.76856 153.20732,300 m 59.49366,-174.23144 24.98239,6.30744 M 288.59729,126.66971 334.21053,300 m -45.61324,-173.33029 -21.33899,4.70714 m 0,0 -19.60288,1.31942 M 267.2583,131.37685 289.01613,300 m -51.33276,-167.924 9.97205,0.62027 M 237.68337,132.076 206.75,300 M 247.65542,132.69627 253.85185,300 M 206.75,300 h 47.10185 m 0,0 h 35.16428 m 0,0 h 45.1944 m -181.00321,0 H 206.75 m 127.46053,0 h 66.30733 m -319.038693,0 h 71.728153 m 247.31054,0 h 70.64881 M 8,300 h 73.479167 m 389.687503,0 H 504 m 0,0 V 270.18182 M 0,239.125 V 300 m 0,0 H 8 M 504,270.18182 V 211.16667 M 0,203.53571 V 239.125 M 504,211.16667 V 0 m 0,0 H 392.30473 M 111.00904,0 H 0 M 0,0 V 203.53571 M 392.30473,0 H 111.00904"
         stroke="#000000"
         stroke-width="2" /></g><g
       id="svg_g_seeds-2"><circle
         id="c_1-5"
         cx="420"
         cy="140"
         r="3"
         stroke="#000000"
         stroke-width="2"
         fill="#1f7bfd"
         style="fill:none" /><circle
         id="c_2-7"
         cx="85"
         cy="139"
         r="3"
         stroke="#000000"
         stroke-width="2"
         fill="#1f7bfd"
         style="fill:none" /><circle
         id="c_3-4"
         cx="94"
         cy="153"
         r="3"
         stroke="#000000"
         stroke-width="2"
         fill="#1f7bfd"
         style="fill:none" /><circle
         id="c_4-9"
         cx="109"
         cy="173"
         r="3"
         stroke="#000000"
         stroke-width="2"
         fill="#1f7bfd"
         style="fill:none" /><circle
         id="c_5-9"
         cx="135"
         cy="199"
         r="3"
         stroke="#000000"
         stroke-width="2"
         fill="#1f7bfd"
         style="fill:none" /><circle
         id="c_6-4"
         cx="159"
         cy="216"
         r="3"
         stroke="#000000"
         stroke-width="2"
         fill="#1f7bfd"
         style="fill:none" /><circle
         id="c_7-5"
         cx="200"
         cy="230"
         r="3"
         stroke="#000000"
         stroke-width="2"
         fill="#1f7bfd"
         style="fill:none" /><circle
         id="c_8-9"
         cx="238"
         cy="237"
         r="3"
         stroke="#000000"
         stroke-width="2"
         fill="#1f7bfd"
         style="fill:none" /><circle
         id="c_9-3"
         cx="265"
         cy="236"
         r="3"
         stroke="#000000"
         stroke-width="2"
         fill="#1f7bfd"
         style="fill:none" /><circle
         id="c_10-5"
         cx="296"
         cy="232"
         r="3"
         stroke="#000000"
         stroke-width="2"
         fill="#1f7bfd"
         style="fill:none" /><circle
         id="c_11-7"
         cx="334"
         cy="222"
         r="3"
         stroke="#000000"
         stroke-width="2"
         fill="#1f7bfd"
         style="fill:none" /><circle
         id="c_12-0"
         cx="362"
         cy="205"
         r="3"
         stroke="#000000"
         stroke-width="2"
         fill="#1f7bfd"
         style="fill:none" /><circle
         id="c_13-8"
         cx="386"
         cy="183"
         r="3"
         stroke="#000000"
         stroke-width="2"
         fill="#1f7bfd"
         style="fill:none" /><circle
         id="c_14-1"
         cx="406"
         cy="161"
         r="3"
         stroke="#000000"
         stroke-width="2"
         fill="#1f7bfd"
         style="fill:none" /><circle
         id="c_15-9"
         cx="251"
         cy="20"
         r="3"
         stroke="#000000"
         stroke-width="2"
         fill="#1f7bfd"
         style="fill:none" /><circle
         id="c_16"
         cx="251"
         cy="28"
         r="3"
         stroke="#000000"
         stroke-width="2"
         fill="#1f7bfd"
         style="fill:none" /></g></g><g
     id="g16"
     transform="translate(1,1)"
     style="display:none"><g
       id="svg_g_edges-1"><path
         id="svg_path_edges-90"
         d="M 128.21386,24 H 375.26331 M 133.89759,32.5 H 369.63018 M 128.21386,24 111.00904,0 M 375.26331,24 392.30473,0 m -264.09087,24 5.68373,8.5 m 241.36572,-8.5 -5.63313,8.5 m -235.73259,0 37.42166,60.901912 M 369.63018,32.5 331.02174,95.847826 M 171.31925,93.401912 0,203.53571 M 331.02174,95.847826 504,211.16667 M 179.5123,104.49078 0,239.125 M 323.11053,105.73684 504,270.18182 M 171.31925,93.401912 179.5123,104.49078 m 151.50944,-8.642954 -7.91121,9.889014 M 191.2518,116.7482 8,300 M 179.5123,104.49078 191.2518,116.7482 M 306.8633,120.75996 471.16667,300 M 323.11053,105.73684 306.8633,120.75996 M 204.54181,126.26451 81.479167,300 M 191.2518,116.7482 l 13.29001,9.51631 m 102.32149,-5.50455 -10.82666,7.15333 m 0,0 L 400.51786,300 m -195.97605,-173.73549 6.79695,3.4934 m 84.69788,-1.84462 -6.36107,2.85389 M 211.33876,129.75791 153.20732,300 m 58.13144,-170.24209 25.52894,6.74599 M 289.67557,130.76718 334.21053,300 m -44.53496,-169.23282 -21.84545,5.04125 m 0,0 -20.00731,1.40755 M 267.83012,135.80843 289.01613,300 m -52.14843,-163.4961 10.95511,0.71208 M 236.8677,136.5039 206.75,300 M 247.82281,137.21598 253.85185,300 M 206.75,300 h 47.10185 m 0,0 h 35.16428 m 0,0 h 45.1944 m -181.00321,0 H 206.75 m 127.46053,0 h 66.30733 m -319.038693,0 h 71.728153 m 247.31054,0 h 70.64881 M 8,300 h 73.479167 m 389.687503,0 H 504 m 0,0 V 270.18182 M 0,239.125 V 300 m 0,0 H 8 M 504,270.18182 V 211.16667 M 0,203.53571 V 239.125 M 504,211.16667 V 0 m 0,0 H 392.30473 M 111.00904,0 H 0 M 0,0 V 203.53571 M 392.30473,0 H 111.00904"
         stroke="#000000"
         stroke-width="2" /></g><g
       id="svg_g_seeds-5"><circle
         id="c_1-6"
         cx="420"
         cy="140"
         r="3"
         stroke="#000000"
         stroke-width="2"
         fill="#1f7bfd"
         style="fill:none" /><circle
         id="c_2-77"
         cx="85"
         cy="139"
         r="3"
         stroke="#000000"
         stroke-width="2"
         fill="#1f7bfd"
         style="fill:none" /><circle
         id="c_3-40"
         cx="94"
         cy="153"
         r="3"
         stroke="#000000"
         stroke-width="2"
         fill="#1f7bfd"
         style="fill:none" /><circle
         id="c_4-6"
         cx="109"
         cy="173"
         r="3"
         stroke="#000000"
         stroke-width="2"
         fill="#1f7bfd"
         style="fill:none" /><circle
         id="c_5-4"
         cx="135"
         cy="199"
         r="3"
         stroke="#000000"
         stroke-width="2"
         fill="#1f7bfd"
         style="fill:none" /><circle
         id="c_6-7"
         cx="159"
         cy="216"
         r="3"
         stroke="#000000"
         stroke-width="2"
         fill="#1f7bfd"
         style="fill:none" /><circle
         id="c_7-4"
         cx="200"
         cy="230"
         r="3"
         stroke="#000000"
         stroke-width="2"
         fill="#1f7bfd"
         style="fill:none" /><circle
         id="c_8-8"
         cx="238"
         cy="237"
         r="3"
         stroke="#000000"
         stroke-width="2"
         fill="#1f7bfd"
         style="fill:none" /><circle
         id="c_9-5"
         cx="265"
         cy="236"
         r="3"
         stroke="#000000"
         stroke-width="2"
         fill="#1f7bfd"
         style="fill:none" /><circle
         id="c_10-8"
         cx="296"
         cy="232"
         r="3"
         stroke="#000000"
         stroke-width="2"
         fill="#1f7bfd"
         style="fill:none" /><circle
         id="c_11-2"
         cx="334"
         cy="222"
         r="3"
         stroke="#000000"
         stroke-width="2"
         fill="#1f7bfd"
         style="fill:none" /><circle
         id="c_12-6"
         cx="362"
         cy="205"
         r="3"
         stroke="#000000"
         stroke-width="2"
         fill="#1f7bfd"
         style="fill:none" /><circle
         id="c_13-0"
         cx="386"
         cy="183"
         r="3"
         stroke="#000000"
         stroke-width="2"
         fill="#1f7bfd"
         style="fill:none" /><circle
         id="c_14-6"
         cx="406"
         cy="161"
         r="3"
         stroke="#000000"
         stroke-width="2"
         fill="#1f7bfd"
         style="fill:none" /><circle
         id="c_15-6"
         cx="251"
         cy="20"
         r="3"
         stroke="#000000"
         stroke-width="2"
         fill="#1f7bfd"
         style="fill:none" /><circle
         id="c_16-4"
         cx="251"
         cy="28"
         r="3"
         stroke="#000000"
         stroke-width="2"
         fill="#1f7bfd"
         style="fill:none" /><circle
         id="c_17"
         cx="251"
         cy="37"
         r="3"
         stroke="#000000"
         stroke-width="2"
         fill="#1f7bfd"
         style="fill:none" /></g></g><g
     id="g17"
     transform="matrix(0.99605274,0,0,0.99335543,0.99470976,0.99469654)"><g
       id="svg_g_shape_map"
       style="display:none"><image
         x="0"
         y="0"
         xlink:href="blob:https://voronoi-editor.web.app/2c480030-72f2-4062-bcac-f804fcf152dc"
         id="image1" /></g><g
       id="svg_g_bezier_cells-28"
       style="display:none"><path
         d="m 111.00904,0 17.20482,24 H 375.26331 L 392.30473,0 Z"
         fill="#221155"
         fill-opacity="0.2"
         id="path1-9" /><path
         d="m 128.21386,24 5.68373,8.5 h 235.73259 l 5.63313,-8.5 z"
         fill="#221155"
         fill-opacity="0.2"
         id="path2-6" /><path
         d="m 133.89759,32.5 4.91566,8 h 225.94119 l 4.87574,-8 z"
         fill="#221155"
         fill-opacity="0.2"
         id="path3-0" /><path
         d="m 138.81325,40.5 4.00603,7 h 217.95883 l 3.97633,-7 z"
         fill="#221155"
         fill-opacity="0.2"
         id="path4-7" /><path
         d="m 142.81928,47.5 3.71084,7 h 210.5616 l 3.68639,-7 z"
         fill="#221155"
         fill-opacity="0.2"
         id="path5-0" /><path
         d="m 146.53012,54.5 4.14759,8.5 h 202.28975 l 4.12426,-8.5 z"
         fill="#221155"
         fill-opacity="0.2"
         id="path6-1" /><path
         d="m 150.67771,63 3.63554,8.5 h 195.0329 l 3.62131,-8.5 z"
         fill="#221155"
         fill-opacity="0.2"
         id="path7-0" /><path
         d="m 154.31325,71.5 2.89157,7.5 h 189.25672 l 2.88461,-7.5 z"
         fill="#221155"
         fill-opacity="0.2"
         id="path8-1" /><path
         d="m 157.20482,79 2.36145,7 h 184.53432 l 2.36095,-7 z"
         fill="#221155"
         fill-opacity="0.2"
         id="path9-3" /><path
         d="m 159.56627,86 1.65662,5.5 h 181.21794 l 1.65976,-5.5 z"
         fill="#221155"
         fill-opacity="0.2"
         id="path10-7" /><path
         d="m 161.22289,91.5 1.49097,5.5 h 178.22993 l 1.49704,-5.5 z"
         fill="#221155"
         fill-opacity="0.2"
         id="path11-72" /><path
         d="m 162.71386,97 0.39474,1.680187 4.87933,14.453863 9.12602,17.752 13.1993,15.46584 12.08615,9.58557 28.80666,11.30107 17.79123,1.68822 22.80327,-2.3474 25.0518,-8.54038 12.36672,-8.41343 12.24162,-12.94114 12.79675,-20.81399 5.56964,-14.15235 L 340.94379,97 Z"
         fill="#221155"
         fill-opacity="0.2"
         id="path12-6" /><path
         d="M 0,203.53571 163.1086,98.680187 162.71386,97 l -1.49097,-5.5 -1.65662,-5.5 -2.36145,-7 -2.89157,-7.5 -3.63554,-8.5 -4.14759,-8.5 -3.71084,-7 -4.00603,-7 -4.91566,-8 L 128.21386,24 111.00904,0 H 0 Z"
         fill="#221155"
         fill-opacity="0.2"
         id="path13-4" /><path
         d="M 339.82709,101.71806 504,211.16667 V 0 H 392.30473 l -17.04142,24 -5.63313,8.5 -4.87574,8 -3.97633,7 -3.68639,7 -4.12426,8.5 -3.62131,8.5 -2.88461,7.5 -2.36095,7 -1.65976,5.5 -1.49704,5.5 z"
         fill="#221155"
         fill-opacity="0.2"
         id="path14-5" /><path
         d="M 0,239.125 167.98793,113.13405 163.1086,98.680187 0,203.53571 Z"
         fill="#221155"
         fill-opacity="0.2"
         id="path15-2" /><path
         d="M 334.25745,115.87041 504,270.18182 V 211.16667 L 339.82709,101.71806 Z"
         fill="#221155"
         fill-opacity="0.2"
         id="path16-0" /><path
         d="M 8,300 177.11395,130.88605 167.98793,113.13405 0,239.125 V 300 Z"
         fill="#221155"
         fill-opacity="0.2"
         id="path17" /><path
         d="M 321.4607,136.6844 471.16667,300 H 504 V 270.18182 L 334.25745,115.87041 Z"
         fill="#221155"
         fill-opacity="0.2"
         id="path18" /><path
         d="M 81.479167,300 190.31325,146.35189 177.11395,130.88605 8,300 Z"
         fill="#221155"
         fill-opacity="0.2"
         id="path19" /><path
         d="M 309.21908,149.62554 400.51786,300 h 70.64881 L 321.4607,136.6844 Z"
         fill="#221155"
         fill-opacity="0.2"
         id="path20" /><path
         d="M 153.20732,300 202.3994,155.93746 190.31325,146.35189 81.479167,300 Z"
         fill="#221155"
         fill-opacity="0.2"
         id="path21" /><path
         d="M 296.85236,158.03897 334.21053,300 h 66.30733 L 309.21908,149.62554 Z"
         fill="#221155"
         fill-opacity="0.2"
         id="path22" /><path
         d="M 206.75,300 231.20606,167.23853 202.3994,155.93746 153.20732,300 Z"
         fill="#221155"
         fill-opacity="0.2"
         id="path23" /><path
         d="M 271.80056,166.57935 289.01613,300 h 45.1944 L 296.85236,158.03897 Z"
         fill="#221155"
         fill-opacity="0.2"
         id="path24" /><path
         d="M 248.99729,168.92675 253.85185,300 h 35.16428 L 271.80056,166.57935 Z"
         fill="#221155"
         fill-opacity="0.2"
         id="path25" /><path
         d="M 253.85185,300 248.99729,168.92675 231.20606,167.23853 206.75,300 Z"
         fill="#221155"
         fill-opacity="0.2"
         id="path26" /></g><g
       id="svg_g_edges-2"
       style="display:none"><path
         id="svg_path_edges-909"
         d="m 128.21386,24 h 247.04945 m -241.36572,8.5 h 235.73259 m -230.81693,8 h 225.94119 m -221.93516,7 h 217.95883 m -214.24799,7 h 210.5616 M 150.67771,63 h 202.28975 m -198.65421,8.5 h 195.0329 M 157.20482,79 h 189.25672 m -186.89527,7 h 184.53432 m -182.8777,5.5 H 342.44083 M 162.71386,97 H 340.94379 M 128.21386,24 111.00904,0 M 375.26331,24 392.30473,0 m -264.09087,24 5.68373,8.5 m 241.36572,-8.5 -5.63313,8.5 m -235.73259,0 4.91566,8 m 230.81693,-8 -4.87574,8 m -225.94119,0 4.00603,7 M 163.1086,98.680187 0,203.53571 M 364.75444,40.5 l -3.97633,7 m -217.95883,0 3.71084,7 m 214.24799,-7 -3.68639,7 m -210.5616,0 4.14759,8.5 M 357.09172,54.5 352.96746,63 M 339.82709,101.71806 504,211.16667 M 150.67771,63 l 3.63554,8.5 m 198.65421,-8.5 -3.62131,8.5 m -195.0329,0 2.89157,7.5 m 192.14133,-7.5 -2.88461,7.5 m -189.25672,0 2.36145,7 m 8.42166,27.13405 L 0,239.125 M 346.46154,79 l -2.36095,7 m -184.53432,0 1.65662,5.5 m 182.8777,-5.5 -1.65976,5.5 m -181.21794,0 1.49097,5.5 M 342.44083,91.5 340.94379,97 M 334.25745,115.87041 504,270.18182 M 162.71386,97 l 0.39474,1.680187 m 0,0 4.87933,14.453863 M 340.94379,97 l -1.1167,4.71806 m 0,0 -5.56964,14.15235 m -166.26952,-2.73636 9.12602,17.752 m 0,0 L 8,300 M 334.25745,115.87041 321.4607,136.6844 m 0,0 L 471.16667,300 m -294.05272,-169.11395 13.1993,15.46584 m 0,0 L 81.479167,300 M 321.4607,136.6844 309.21908,149.62554 m 0,0 L 400.51786,300 m -210.20461,-153.64811 12.08615,9.58557 m 106.81968,-6.31192 -12.36672,8.41343 M 202.3994,155.93746 153.20732,300 m 49.19208,-144.06254 28.80666,11.30107 m 65.6463,-9.19956 -25.0518,8.54038 m 25.0518,-8.54038 L 334.21053,300 m -62.40997,-133.42065 -22.80327,2.3474 m 22.80327,-2.3474 L 289.01613,300 m -57.81007,-132.76147 17.79123,1.68822 M 231.20606,167.23853 206.75,300 M 248.99729,168.92675 253.85185,300 M 206.75,300 h 47.10185 m 0,0 h 35.16428 m 0,0 h 45.1944 m -181.00321,0 H 206.75 m 127.46053,0 h 66.30733 m -319.038693,0 h 71.728153 m 247.31054,0 h 70.64881 M 8,300 h 73.479167 m 389.687503,0 H 504 m 0,0 V 270.18182 M 0,239.125 V 300 m 0,0 H 8 M 504,270.18182 V 211.16667 M 0,203.53571 V 239.125 M 504,211.16667 V 0 m 0,0 H 392.30473 M 111.00904,0 H 0 M 0,0 V 203.53571 M 392.30473,0 H 111.00904"
         stroke="#000000"
         stroke-width="2" /></g><g
       id="svg_g_seeds-9"><circle
         id="c_1-4"
         cx="420"
         cy="140"
         r="3"
         stroke="#000000"
         stroke-width="2"
         fill="#1f7bfd"
         style="display:inline;fill:none" /><circle
         id="c_2-5"
         cx="85"
         cy="139"
         r="3"
         stroke="#000000"
         stroke-width="2"
         fill="#1f7bfd"
         style="fill:none" /><circle
         id="c_3-1"
         cx="94"
         cy="153"
         r="3"
         stroke="#000000"
         stroke-width="2"
         fill="#1f7bfd"
         style="fill:none" /><circle
         id="c_4-0"
         cx="109"
         cy="173"
         r="3"
         stroke="#000000"
         stroke-width="2"
         fill="#1f7bfd"
         style="fill:none" /><circle
         id="c_5-3"
         cx="135"
         cy="199"
         r="3"
         stroke="#000000"
         stroke-width="2"
         fill="#1f7bfd"
         style="fill:none" /><circle
         id="c_6-78"
         cx="159"
         cy="216"
         r="3"
         stroke="#000000"
         stroke-width="2"
         fill="#1f7bfd"
         style="fill:none" /><circle
         id="c_7-8"
         cx="200"
         cy="230"
         r="3"
         stroke="#000000"
         stroke-width="2"
         fill="#1f7bfd"
         style="fill:none" /><circle
         id="c_8-6"
         cx="238"
         cy="237"
         r="3"
         stroke="#000000"
         stroke-width="2"
         fill="#1f7bfd"
         style="fill:none" /><circle
         id="c_9-0"
         cx="265"
         cy="236"
         r="3"
         stroke="#000000"
         stroke-width="2"
         fill="#1f7bfd"
         style="fill:none" /><circle
         id="c_10-4"
         cx="296"
         cy="232"
         r="3"
         stroke="#000000"
         stroke-width="2"
         fill="#1f7bfd"
         style="fill:none" /><circle
         id="c_11-6"
         cx="334"
         cy="222"
         r="3"
         stroke="#000000"
         stroke-width="2"
         fill="#1f7bfd"
         style="fill:none" /><circle
         id="c_12-7"
         cx="362"
         cy="205"
         r="3"
         stroke="#000000"
         stroke-width="2"
         fill="#1f7bfd"
         style="fill:none" /><circle
         id="c_13-6"
         cx="386"
         cy="183"
         r="3"
         stroke="#000000"
         stroke-width="2"
         fill="#1f7bfd"
         style="fill:none" /><circle
         id="c_14-0"
         cx="406"
         cy="161"
         r="3"
         stroke="#000000"
         stroke-width="2"
         fill="#1f7bfd"
         style="fill:none" /><circle
         id="c_15-97"
         cx="251"
         cy="20"
         r="3"
         stroke="#000000"
         stroke-width="2"
         fill="#1f7bfd"
         style="fill:none" /><circle
         id="c_16-5"
         cx="251"
         cy="28"
         r="3"
         stroke="#000000"
         stroke-width="2"
         fill="#1f7bfd"
         style="fill:none" /><circle
         id="c_17-9"
         cx="251"
         cy="37"
         r="3"
         stroke="#000000"
         stroke-width="2"
         fill="#1f7bfd"
         style="fill:none" /><circle
         id="c_18"
         cx="251"
         cy="44"
         r="3"
         stroke="#000000"
         stroke-width="2"
         fill="#1f7bfd"
         style="fill:none" /><circle
         id="c_19"
         cx="251"
         cy="51"
         r="3"
         stroke="#000000"
         stroke-width="2"
         fill="#1f7bfd"
         style="fill:none" /><circle
         id="c_20"
         cx="251"
         cy="58"
         r="3"
         stroke="#000000"
         stroke-width="2"
         fill="#1f7bfd"
         style="fill:none" /><circle
         id="c_21"
         cx="251"
         cy="68"
         r="3"
         stroke="#000000"
         stroke-width="2"
         fill="#1f7bfd"
         style="fill:none" /><circle
         id="c_22"
         cx="251"
         cy="75"
         r="3"
         stroke="#000000"
         stroke-width="2"
         fill="#1f7bfd"
         style="fill:none" /><circle
         id="c_23"
         cx="251"
         cy="83"
         r="3"
         stroke="#000000"
         stroke-width="2"
         fill="#1f7bfd"
         style="fill:none" /><circle
         id="c_24"
         cx="251"
         cy="89"
         r="3"
         stroke="#000000"
         stroke-width="2"
         fill="#1f7bfd"
         style="fill:none" /><circle
         id="c_25"
         cx="251"
         cy="94"
         r="3"
         stroke="#000000"
         stroke-width="2"
         fill="#1f7bfd"
         style="fill:none" /><circle
         id="c_26"
         cx="251"
         cy="100"
         r="3"
         stroke="#000000"
         stroke-width="2"
         fill="#1f7bfd"
         style="fill:none" /></g></g><rect
     style="fill:none;stroke:#000000;stroke-width:1.98942"
     id="rect17"
     width="502.01056"
     height="298.01059"
     x="0.99470979"
     y="0.99470979" /></svg>
